<svg width="24" height="24" viewBox="0 0 24 24" fill="none" xmlns="http://www.w3.org/2000/svg">
<path d="M24 12.3334C24 11.2407 23.3533 10.3307 22.4847 10.0767C21.578 5.10537 17.2333 1.33337 12 1.33337C6.76667 1.33337 2.422 5.10537 1.51533 10.0767C0.646667 10.3307 0 11.2407 0 12.3334C0 13.4907 0.724667 14.4454 1.67333 14.628C2.846 19.2454 7.018 22.6667 12 22.6667C16.982 22.6667 21.154 19.2454 22.3267 14.628C23.2747 14.4454 24 13.4907 24 12.3334Z" fill="white"/>
<path d="M12 16.6667C10 16.6667 9.33334 16 9.33334 17.3333C9.33334 18.6667 10.6667 20 12 20C13.3333 20 14.6667 18.6667 14.6667 17.3333C14.6667 16 14 16.6667 12 16.6667Z" fill="#00A5B7"/>
<path d="M15 14C15.9205 14 16.6666 13.2538 16.6666 12.3333C16.6666 11.4128 15.9205 10.6666 15 10.6666C14.0795 10.6666 13.3333 11.4128 13.3333 12.3333C13.3333 13.2538 14.0795 14 15 14Z" fill="#00A5B7"/>
<path d="M8.99998 14C9.92045 14 10.6666 13.2538 10.6666 12.3333C10.6666 11.4128 9.92045 10.6666 8.99998 10.6666C8.07951 10.6666 7.33331 11.4128 7.33331 12.3333C7.33331 13.2538 8.07951 14 8.99998 14Z" fill="#00A5B7"/>
<path d="M12 17.3333H13.3333V17.9999C13.3333 17.9999 13.3333 18.6666 12.6667 18.6666C12 18.6666 12 17.9999 12 17.9999V17.3333Z" fill="#00A5B7"/>
<path d="M11.988 7.33331H11.9673C11.5785 7.33556 11.1932 7.25978 10.8342 7.11045C10.4753 6.96113 10.1499 6.7413 9.87735 6.46398C9.63141 6.21557 9.44046 5.91823 9.31688 5.59125C9.1933 5.26426 9.13986 4.91495 9.16001 4.56598C9.16467 4.47854 9.18668 4.39291 9.22475 4.31406C9.26283 4.23521 9.31621 4.16473 9.38179 4.10672C9.44738 4.04871 9.52385 4.00432 9.60675 3.97615C9.68965 3.94799 9.77733 3.93659 9.86468 3.94264C10.232 3.96464 10.5127 4.28131 10.4907 4.64931C10.4713 4.97931 10.594 5.30464 10.826 5.53998C10.9758 5.69332 11.1546 5.81528 11.3521 5.89873C11.5496 5.98217 11.7617 6.02543 11.976 6.02598C12.4113 6.00198 12.8227 5.86131 13.1327 5.55598C13.5485 5.14509 13.7843 4.58598 13.7883 4.00139C13.7923 3.4168 13.5642 2.85452 13.154 2.43798C12.6091 1.88669 11.8676 1.57413 11.0925 1.56888C10.3173 1.56363 9.57173 1.86612 9.01935 2.40998C8.95701 2.47144 8.88318 2.52001 8.80208 2.55294C8.72097 2.58587 8.63417 2.6025 8.54663 2.60188C8.36985 2.60063 8.2008 2.5292 8.07668 2.40331C7.95256 2.27742 7.88353 2.10738 7.88478 1.9306C7.88603 1.75381 7.95746 1.58476 8.08335 1.46064C8.88787 0.669242 9.97339 0.229169 11.1019 0.236917C12.2304 0.244665 13.3098 0.699603 14.1033 1.50198C14.429 1.83179 14.6865 2.22257 14.8611 2.65198C15.0356 3.08138 15.1238 3.54098 15.1206 4.0045C15.1174 4.46801 15.0228 4.92634 14.8423 5.35328C14.6618 5.78022 14.3989 6.16739 14.0687 6.49264C13.5113 7.04331 12.772 7.33331 11.988 7.33331Z" fill="#00A5B7"/>
</svg>
