<svg width="260" height="220" viewBox="0 0 260 220" fill="none" xmlns="http://www.w3.org/2000/svg">
<path d="M231.291 151.305C225.211 148.56 224.286 141.951 221.775 138.515C219.263 135.079 213.184 132.964 213.184 132.964C213.184 132.964 218.999 128.47 228.251 129.527C232.601 130.024 235.868 131.982 238.537 134.109C237.164 130.128 238.558 127.834 236.181 124.047C233.405 119.624 227.987 117.236 224.946 109.891C221.906 102.546 224.946 95.9561 224.946 95.9561C224.946 95.9561 225.871 98.5993 229.572 101.243C232.88 103.606 242.205 103.969 247.735 111.097C244.877 70.8682 216.909 48.8835 197.557 37.4156C180.935 27.5655 170.202 7.00741 125.293 9.98047C80.384 12.9599 70.3859 41.7704 59.2589 63.5801C53.0992 75.6537 39.1723 78.3251 27.4263 86.6322C36.1204 84.3575 41.6335 88.5529 48.183 89.8764C56.0325 91.4626 57.2657 85.9281 64.3149 85.9638C71.3641 85.9995 74.0073 88.4665 74.0073 88.4665C74.0073 88.4665 66.9581 87.4089 64.6672 93.401C62.3764 99.3926 59.5565 101.643 52.5073 100.694C45.4581 99.7456 43.4177 100.257 39.6795 103.614C35.9419 106.971 27.3066 104.504 22.372 105.737C19.4485 106.468 15.4742 111.652 12.72 115.757C14.9451 113.956 17.9919 111.966 22.0962 110.135C33.5509 105.024 48.1824 114.372 48.1824 114.372C48.1824 114.372 36.6466 117.016 29.9497 121.598C23.2529 126.18 18.4951 121.774 13.9129 123.36C11.618 124.155 9.76532 124.96 8.4872 125.565C8.48605 125.583 8.48433 125.6 8.48317 125.618C7.56431 139.866 12.9491 152.517 22.0957 163.36C44.4915 189.907 89.4437 205.635 119.704 207.517C151.352 209.478 206.894 197.722 233.268 162.688C235.603 159.588 237.705 156.304 239.545 152.833C236.909 152.819 233.874 152.472 231.291 151.305Z" fill="#00A5B7" fill-opacity="0.2"/>
<path d="M106.82 83.9043C115.274 80.3327 119.231 70.5842 115.66 62.1306C112.088 53.6769 102.34 49.7192 93.8862 53.2908C85.4325 56.8624 81.4748 66.6109 85.0464 75.0645C88.618 83.5182 98.3665 87.4759 106.82 83.9043Z" fill="#083862"/>
<path d="M214.841 58.0122C218.173 58.0122 220.874 55.3114 220.874 51.9797C220.874 48.6481 218.173 45.9473 214.841 45.9473C211.51 45.9473 208.809 48.6481 208.809 51.9797C208.809 55.3114 211.51 58.0122 214.841 58.0122Z" fill="#083862"/>
<path d="M233.27 162.687C206.896 197.722 151.353 209.478 119.706 207.516C89.4454 205.635 44.4932 189.907 22.0974 163.36C30.628 153.904 52.4377 134.753 92.6839 129.368C146.79 122.127 184.5 165.087 225.388 162.818C228.138 162.663 230.766 162.626 233.27 162.687Z" fill="#083862"/>
<path d="M57.8829 51.0178C62.9055 35.9504 51.0099 42.9109 46.5163 52.5152C42.0228 62.1201 33.5636 63.1754 33.5636 68.5953C33.5636 74.0152 52.8603 66.0851 57.8829 51.0178Z" stroke="#083862" stroke-width="0.575727" stroke-miterlimit="10"/>
<path d="M195.605 32.1123C195.605 32.1123 181.595 20.2224 175.912 16.3892C170.228 12.556 172.74 7.40154 185.758 13.3494C198.777 19.2972 204.329 30.7818 202.61 33.1682C200.892 35.554 195.605 32.1123 195.605 32.1123Z" stroke="#083862" stroke-width="0.575727" stroke-miterlimit="10"/>
<path d="M65.592 67.6938C65.592 68.1923 65.1878 68.5965 64.6892 68.5965C64.1907 68.5965 63.7865 68.1923 63.7865 67.6938C63.7865 67.1952 64.1907 66.791 64.6892 66.791C65.1878 66.791 65.592 67.1952 65.592 67.6938Z" fill="#5661AF"/>
<path d="M73.1697 69.3988C73.1697 69.8974 72.7656 70.3016 72.267 70.3016C71.7684 70.3016 71.3643 69.8974 71.3643 69.3988C71.3643 68.9003 71.7684 68.4961 72.267 68.4961C72.7656 68.4961 73.1697 68.9003 73.1697 69.3988Z" fill="#5661AF"/>
<path d="M98.4948 42.432C98.4948 42.9306 98.0907 43.3348 97.5921 43.3348C97.0935 43.3348 96.6893 42.9306 96.6893 42.432C96.6893 41.9335 97.0935 41.5293 97.5921 41.5293C98.0907 41.5293 98.4948 41.9335 98.4948 42.432Z" fill="#5661AF"/>
<path d="M216.647 122.474C216.647 122.973 216.243 123.377 215.744 123.377C215.245 123.377 214.841 122.973 214.841 122.474C214.841 121.975 215.245 121.571 215.744 121.571C216.243 121.571 216.647 121.975 216.647 122.474Z" fill="#5661AF"/>
<path d="M219.721 120.029C219.721 120.527 219.317 120.931 218.818 120.931C218.32 120.931 217.916 120.527 217.916 120.029C217.916 119.53 218.32 119.126 218.818 119.126C219.317 119.126 219.721 119.53 219.721 120.029Z" fill="#5661AF"/>
<path d="M69.9104 66.218C70.7132 66.218 71.3641 65.5671 71.3641 64.7643C71.3641 63.9614 70.7132 63.3105 69.9104 63.3105C69.1075 63.3105 68.4567 63.9614 68.4567 64.7643C68.4567 65.5671 69.1075 66.218 69.9104 66.218Z" fill="#5661AF"/>
<path d="M223.273 76.0686C224.076 76.0686 224.727 75.4177 224.727 74.6148C224.727 73.812 224.076 73.1611 223.273 73.1611C222.47 73.1611 221.819 73.812 221.819 74.6148C221.819 75.4177 222.47 76.0686 223.273 76.0686Z" fill="#5661AF"/>
<path d="M68.4568 118.333C68.4568 119.373 67.6133 120.217 66.573 120.217C65.5327 120.217 64.6892 119.373 64.6892 118.333C64.6892 117.293 65.5327 116.449 66.573 116.449C67.6133 116.45 68.4568 117.293 68.4568 118.333Z" stroke="white" stroke-width="0.575727" stroke-miterlimit="10"/>
<path d="M174.929 38.001C174.929 39.0413 174.085 39.8848 173.045 39.8848C172.005 39.8848 171.161 39.0413 171.161 38.001C171.161 36.9606 172.005 36.1172 173.045 36.1172C174.085 36.1172 174.929 36.9606 174.929 38.001Z" stroke="white" stroke-width="0.575727" stroke-miterlimit="10"/>
<path d="M82.8194 37.5573C85.9052 36.341 87.4208 32.8534 86.2044 29.7675C84.9881 26.6817 81.5005 25.1662 78.4146 26.3826C75.3288 27.5989 73.8133 31.0865 75.0297 34.1723C76.246 37.2581 79.7336 38.7737 82.8194 37.5573Z" stroke="white" stroke-width="0.575727" stroke-miterlimit="10"/>
<path d="M247.998 95.1492C254.291 92.582 257.312 85.3993 254.744 79.1061C252.177 72.8129 244.995 69.7924 238.701 72.3596C232.408 74.9267 229.388 82.1094 231.955 88.4026C234.522 94.6958 241.705 97.7163 247.998 95.1492Z" stroke="white" stroke-width="0.575727" stroke-miterlimit="10"/>
<path d="M12.5946 155.932C19.3914 155.932 24.9013 150.422 24.9013 143.625C24.9013 136.828 19.3914 131.318 12.5946 131.318C5.79776 131.318 0.287842 136.828 0.287842 143.625C0.287842 150.422 5.79776 155.932 12.5946 155.932Z" stroke="white" stroke-width="0.575727" stroke-miterlimit="10"/>
<path d="M105.895 18.3887C105.895 18.3887 103.303 19.7341 103.18 25.4114C103.058 31.0886 108.497 33.7191 111.926 33.6581L111.626 32.7726C111.626 32.7726 105.784 32.1284 104.268 27.1725C102.752 22.2167 106.056 18.8516 106.056 18.8516L105.895 18.3887Z" fill="#3D2624"/>
<path d="M200.333 117.457C200.333 117.457 199.146 126.43 183.407 129.856C167.667 133.283 151.433 124.309 151.433 124.309L154.082 124.047C154.082 124.047 163.261 129.367 174.274 128.715C185.288 128.062 191.524 121.373 191.524 121.373L200.333 117.457Z" fill="#3D2624"/>
<path d="M204.214 74.0584C205.192 62.9641 189.856 51.5434 171.583 48.6026C153.31 45.6618 154.629 26.1729 154.629 26.1729L118.122 47.1788C118.122 47.1788 116.437 64.5957 104.269 74.3848C92.101 84.1739 90.0065 107.342 95.7166 116.479C101.427 125.615 111.542 126.268 127.287 125.289C143.031 124.31 150.329 125.127 167.83 126.594C185.332 128.061 197.811 132.038 208.439 112.644C219.067 93.2508 204.214 74.0584 204.214 74.0584ZM202.745 73.1608C202.745 73.1608 200.869 67.6955 193.69 62.0666C186.511 56.4377 180.8 53.338 180.8 53.338C203.152 60.3538 203.397 73.1614 203.397 73.1614H202.745V73.1608Z" fill="#3D2624"/>
<path d="M105.538 64.1719C105.538 64.1719 100.366 68.8376 96.6952 78.6267C93.0244 88.4157 85.2745 118.762 85.2745 118.762L97.8024 126.574L109.91 93.4735L105.538 64.1719Z" fill="#C56E5D"/>
<path d="M155.455 111.233C153.55 116.871 154.018 123.038 156.769 128.318L157.442 131.224V131.23L159.286 139.168C146.666 150.122 129.137 153.817 118.355 151.436C107.567 149.056 104.822 140.229 104.822 140.229L106.488 128.565L103.632 102.617C103.632 102.617 101.4 99.2062 100.45 91.3539C99.4935 83.4958 105.538 64.1715 105.538 64.1715L125.177 56.3198L139.498 55.0986L163.387 64.1715L166.477 71.9122C166.366 76.1927 163.214 87.2023 159.921 97.608C158.36 102.549 156.769 107.354 155.455 111.233Z" fill="white"/>
<path d="M139.634 56.3757C137.39 60.4634 129.379 65.5949 126.144 64.4728C122.909 63.3507 125.531 57.5796 125.531 57.5796C125.56 56.7603 125.59 56.005 125.613 55.3095C125.763 50.6945 125.733 48.7456 125.733 48.7456L139.634 39.5449C139.309 41.2243 139.148 43.1426 139.092 45.0725C138.924 50.687 139.634 56.3757 139.634 56.3757Z" fill="#C56E5D"/>
<path d="M139.634 39.5449C139.309 41.2243 139.148 43.1426 139.092 45.0725C137.499 47.4623 134.843 51.0451 132.083 53.0089C129.233 55.0395 126.899 55.3463 125.613 55.3089C125.763 50.6939 125.733 48.7451 125.733 48.7451L139.634 39.5449Z" fill="#AF5448"/>
<path d="M110.624 34.6566C110.624 34.6566 111.105 46.037 119.119 51.1662C127.134 56.2953 138.354 45.5563 140.277 39.6257C142.201 33.6952 141.559 20.872 141.559 20.872C141.559 20.872 130.98 13.8193 122.966 13.8193C114.952 13.8193 110.624 17.8264 110.624 17.8264C110.624 17.8264 110.624 28.7261 110.624 34.6566Z" fill="#C56E5D"/>
<path d="M119.758 14.044C119.758 14.044 119.52 18.2278 127.214 23.1163C134.908 28.0048 139.079 29.0066 139.079 29.0066L140.709 37.9942C140.709 37.9942 139.589 40.8147 139.276 41.8401C138.934 42.9593 139.068 46.5179 139.068 46.5179C139.068 46.5179 145.567 45.5547 147.81 39.5447C147.81 39.5447 154.462 34.5767 154.702 25.6006C154.943 16.6244 150.294 13.8195 150.294 13.8195C150.294 13.8195 149.098 3.08042 137.234 1.23694C125.37 -0.606534 115.913 6.04542 115.913 6.04542C115.913 6.04542 110.143 5.24401 107.017 9.33109C103.891 13.4182 105.895 18.3873 105.895 18.3873C105.895 18.3873 103.17 21.0322 104.773 25.3599C106.376 29.6877 110.623 30.2484 110.623 30.2484C110.623 30.2484 111.024 22.8751 113.188 19.1887C115.352 15.5029 119.758 14.044 119.758 14.044Z" fill="#3D2624"/>
<path d="M139.636 30.3289C139.636 30.3289 141.159 26.5619 144.284 26.1612C147.41 25.7605 147.651 31.2904 145.487 34.9774C143.322 38.6637 140.277 37.9429 140.277 37.9429L139.636 30.3289Z" fill="#C56E5D"/>
<path d="M138.113 26.1416C138.113 26.1416 140.197 32.4136 138.995 37.3821C138.995 37.3821 139.333 37.0488 139.774 36.4051C140.78 34.9399 141.198 29.368 141.649 27.4577L138.113 26.1416Z" fill="#3D2624"/>
<path d="M115.753 6.60709C115.753 6.60709 118.371 2.81362 123.34 1.26434C128.309 -0.28494 132.476 1.26434 132.476 1.26434L133.278 1.2108C133.278 1.2108 128.629 -1.02129 123.393 0.575772C118.157 2.17284 114.524 6.28699 114.524 6.28699L115.753 6.60709Z" fill="#3D2624"/>
<path d="M150.295 13.8193C150.295 13.8193 153.065 14.3536 154.712 17.3457C156.359 20.3377 154.659 23.3753 154.659 23.3753L154.382 23.0091C154.382 23.0091 155.708 20.431 154.062 17.6128C152.416 14.7946 150.295 14.9414 150.295 14.9414V13.8193Z" fill="#3D2624"/>
<path d="M111.625 28.3427C111.625 28.3427 111.958 27.5839 114.329 27.6317C116.699 27.6789 118.122 29.0065 118.122 29.0065C118.122 29.0065 117.032 26.9679 114.874 26.6829C112.716 26.3985 111.673 28.0111 111.625 28.3427Z" fill="#3D2624"/>
<path d="M119.758 14.0439C119.758 14.0439 119.386 18.1477 121.79 21.4605C124.194 24.7732 131.301 24.7732 131.301 24.7732L131.586 25.4105C131.586 25.4105 124.569 25.4675 121.737 22.9562C118.905 20.4449 118.585 16.245 119.119 14.0439H119.758Z" fill="#3D2624"/>
<path d="M124.528 28.6052C124.528 28.6052 124.911 27.7289 127.649 27.7836C130.387 27.8383 132.03 29.3715 132.03 29.3715C132.03 29.3715 130.77 27.0167 128.279 26.688C125.787 26.3598 124.582 28.2217 124.528 28.6052Z" fill="#3D2624"/>
<path d="M118.122 39.3861C118.122 39.3861 118.482 39.7465 119.845 40.1472C121.207 40.5479 122.169 40.1472 122.169 40.1472C122.169 40.1472 121.758 39.386 120.701 39.2254C119.644 39.0654 118.122 39.3861 118.122 39.3861Z" fill="#913D37"/>
<path d="M118.122 29.0068C118.122 29.0068 118.879 29.8082 119.159 31.8918C119.439 33.9754 119.159 35.6185 119.159 35.6185C119.159 35.6185 118.206 30.1692 118.122 29.0068Z" fill="#AF5448"/>
<path d="M111.926 31.3314C111.926 31.3314 113.088 31.8323 114.551 31.9923C116.013 32.1524 117.817 31.6918 117.817 31.6918C117.817 31.6918 117.146 29.888 115.593 29.4677C113.148 28.8068 111.926 31.3314 111.926 31.3314Z" fill="#AF5448"/>
<path d="M124.528 31.6268C124.528 31.6268 124.769 29.7776 127.133 29.3728C129.497 28.9675 132.303 31.4523 132.303 31.4523C132.303 31.4523 127.653 33.67 124.528 31.6268Z" fill="#AF5448"/>
<path d="M114.939 31.9724C113.362 31.9459 111.926 31.3311 111.926 31.3311L111.626 31.5314C111.43 31.6621 110.991 31.7185 110.991 31.7185C111.415 31.9033 111.854 31.8924 112.123 31.8596C112.668 32.1716 113.635 32.5971 114.872 32.6138C116.836 32.6403 117.817 31.9592 117.817 31.9592V31.692C117.817 31.692 116.515 31.9989 114.939 31.9724Z" fill="#3D2624"/>
<path d="M132.303 31.4512C132.303 31.4512 130.4 32.0298 128.43 32.0839C126.459 32.1374 124.638 31.5583 124.638 31.5583L124.271 31.7868C124.032 31.9354 123.486 32.0183 123.486 32.0183C124.024 32.1927 124.572 32.1587 124.906 32.1092C125.602 32.4126 126.828 32.8145 128.374 32.7684C130.829 32.6953 131.586 32.1121 132.119 31.7621C132.195 31.712 132.303 31.4512 132.303 31.4512Z" fill="#3D2624"/>
<path d="M118.122 43.0195C118.122 43.0195 118.527 43.2066 120.145 43.5272C121.764 43.8479 125.613 43.0195 125.613 43.0195C125.613 43.0195 122.772 42.5387 121.867 42.5923C120.962 42.6458 120.348 43.0943 120.348 43.0943C120.348 43.0943 119.52 42.4316 119.012 42.4316C118.504 42.4316 117.569 42.7253 117.569 42.7253L118.122 43.0195Z" fill="#913D37"/>
<path d="M118.703 44.7324C118.703 44.7324 119.805 45.4803 121.408 45.5338C123.01 45.5874 124.747 44.9195 124.747 44.9195C124.747 44.9195 123.782 46.3047 121.725 46.5183C119.668 46.7319 118.703 44.7324 118.703 44.7324Z" fill="#AF5448"/>
<path d="M99.0259 147.295L105.925 132.527C105.925 132.527 110.512 137.362 124.528 137.852C138.544 138.341 157.441 131.231 157.441 131.231C157.441 131.231 162.282 143.725 162.282 148.375C162.282 153.025 134.628 171.38 134.628 171.38L118.23 170.156L99.0259 147.295Z" fill="#00A5B7"/>
<path d="M98.24 171.38C98.24 171.38 93.7096 173.143 92.1574 173.866C92.1574 173.866 85.3892 174.56 82.6723 175.36C79.9554 176.161 79.2692 179.804 78.6031 183.737C77.9364 187.671 72.8688 192.948 71.2965 195.687C69.7242 198.425 70.4749 201.678 70.692 202.352C70.909 203.026 70.0126 205.323 71.1405 206.745C72.2678 208.167 72.9247 207.435 73.5551 207.083C74.1855 206.731 74.3772 205.48 74.3772 205.48C74.3772 205.48 76.1269 205.139 76.7815 204.63C77.4361 204.122 76.7642 204.115 78.3814 203.594C79.9986 203.073 80.8311 202.656 81.7333 201.994C82.6355 201.331 87.7393 192.472 90.9921 189.639C94.2444 186.806 100.1 185.812 100.1 185.812L98.24 171.38Z" fill="#C56E5D"/>
<path d="M186.917 187.286C175.868 190.072 151.873 192.031 130.368 193.304C108.211 194.617 88.6989 195.2 88.6989 195.2L85.4156 184.779L82.5035 175.54L146.905 162.771C146.905 162.771 145.152 149.437 159.182 142.254C159.182 142.254 200.948 142.585 211.067 154.332C221.18 166.077 210.25 181.415 186.917 187.286Z" fill="#00A5B7"/>
<path d="M124.047 183.623C124.047 183.623 128.577 185.386 130.129 186.11C130.129 186.11 136.897 186.803 139.614 187.604C142.331 188.404 143.017 192.047 143.683 195.98C144.35 199.914 149.418 205.192 150.99 207.93C152.562 210.668 151.811 213.921 151.594 214.595C151.377 215.269 152.274 217.566 151.146 218.988C150.019 220.41 149.362 219.678 148.731 219.326C148.101 218.974 147.909 217.723 147.909 217.723C147.909 217.723 146.16 217.382 145.505 216.874C144.85 216.365 145.522 216.358 143.905 215.837C142.288 215.316 141.455 214.899 140.553 214.237C139.651 213.574 134.547 204.715 131.294 201.882C128.042 199.049 122.186 198.055 122.186 198.055L124.047 183.623Z" fill="#C56E5D"/>
<path d="M102.568 144.704C102.568 144.704 47.504 144.704 38.6936 154.493C29.8832 164.282 34.7781 176.763 41.8751 180.924C48.9721 185.084 123.37 201.726 123.37 201.726L127.286 178.966L116.31 175.54L122.187 167.671L102.568 144.704Z" fill="#00A5B7"/>
<path d="M102.406 146.825C102.406 146.825 113.896 161.051 120.143 165.277C120.143 165.277 107.3 163.956 102.406 146.825Z" fill="#017682"/>
<path d="M58.0278 159.144C58.0278 159.144 67.5722 160.367 82.5008 163.549C97.4295 166.73 116.31 175.54 116.31 175.54C116.31 175.54 96.9412 162.325 81.7674 159.144C66.5935 155.962 58.0278 159.144 58.0278 159.144Z" fill="#017682"/>
<path d="M111.274 172.328C111.274 172.328 155.675 159.077 174.274 156.051C174.274 156.051 134.947 167.872 116.31 175.54L111.274 172.328Z" fill="#017682"/>
<path d="M154.082 145.655C154.082 145.655 132.557 156.28 125.312 167.052C125.312 167.052 148.002 155.418 154.082 145.655Z" fill="#017682"/>
<path d="M97.8024 126.574C97.8024 126.574 94.1466 117.679 85.5734 117.599L51.5318 140.694C50.8755 140.354 49.7246 139.88 47.9473 139.55C44.881 138.979 38.8203 139.051 37.2515 138.766C36.495 138.628 36.4524 139.006 36.7759 139.505C36.2762 139.298 35.48 139.856 34.8657 140.762C33.8996 142.189 31.4752 144.846 31.4752 146.334C31.4752 147.821 34.1138 149.319 35.682 149.39C35.682 149.39 30.3341 150.745 29.3358 152.67C28.3375 154.595 30.976 154.31 31.8316 153.882C32.6871 153.454 38.1778 151.957 38.1778 151.957C38.1778 151.957 32.7585 154.952 32.6157 157.02C32.4729 159.088 34.3268 157.875 36.0384 157.02C37.75 156.164 40.8158 154.595 40.8158 154.595C40.8158 154.595 36.3948 157.804 37.1789 159.23C37.9631 160.656 41.5999 157.4 44.5235 156.069C47.447 154.738 49.6567 154.542 52.1237 153.583C55.5757 152.242 57.3973 149.353 57.3973 149.353C63.4822 147.09 89.5482 136.955 97.8024 126.574ZM40.4606 145.967C38.0362 146.823 35.2548 145.967 34.8985 145.539C34.5421 145.111 37.2515 142.616 37.2515 140.69C37.2515 140.389 37.2135 140.156 37.1513 139.971C37.5497 140.387 38.1093 140.807 38.6718 141.047C40.175 141.689 43.4549 142.041 44.311 142.542C45.1666 143.043 42.885 145.112 40.4606 145.967Z" fill="#C56E5D"/>
<path d="M209.924 97.3076C209.924 97.3076 213.023 106.774 210.902 113.829C208.781 120.883 200.664 122.474 200.664 122.474L201.969 120.843C201.969 120.843 209.964 119.497 210.413 108.525C210.812 98.7769 209.924 97.3076 209.924 97.3076Z" fill="#3D2624"/>
<path d="M44.7687 142.43C44.7687 142.43 47.4602 143.959 50.458 143.959C53.4558 143.959 49.8466 145.305 47.6133 144.632C45.3801 143.959 44.7687 142.43 44.7687 142.43Z" fill="#AF5448"/>
<path d="M54.2136 147.754C54.2136 147.754 52.3782 147.815 49.8087 149.161C47.2392 150.507 45.8932 153.933 45.2202 153.383C44.5471 152.832 46.3826 147.57 54.2136 147.754Z" fill="#AF5448"/>
<path d="M36.4847 149.298C36.4847 149.298 42.109 153.846 42.782 153.907C43.4551 153.968 40.4613 149.543 36.4847 149.298Z" fill="#AF5448"/>
<path d="M105.662 100.495C105.662 100.495 108.438 99.041 116.897 99.041C125.356 99.041 139.436 102.345 139.436 102.345C139.436 102.345 113.46 102.478 105.662 100.495Z" fill="#FFE6D9"/>
<path d="M156.776 128.474L157.448 131.379V131.386L145.458 135.086C145.458 135.086 151.557 120.345 151.441 109.063C151.323 97.7821 155.005 83.7441 155.005 83.7441L159.927 97.7637C158.367 102.704 156.775 107.509 155.461 111.389C153.556 117.026 154.025 123.194 156.776 128.474Z" fill="#FFE6D9"/>
<path d="M218.721 163.495C218.099 161.418 213.096 159.092 213.096 159.092C214.65 159.313 217.522 158.333 217.798 156.871C218.075 155.409 216.187 152.347 215.503 150.766C215.068 149.761 214.39 149.065 213.86 149.175C214.27 148.746 214.299 148.366 213.531 148.361C211.936 148.349 205.994 147.152 202.876 147.141C201.618 147.137 200.649 147.258 199.934 147.403L177.129 115.336C175.868 107.498 174.128 87.66 172.071 78.8709C169.379 67.3685 163.385 64.1709 163.385 64.1709C163.385 64.1709 155.951 68.5919 154.711 77.1576C153.472 85.7233 164.389 124.047 164.389 124.047C168.266 134.949 188.682 152.372 191.524 155.627C191.524 155.627 193.018 158.193 196.16 160.153C198.406 161.553 200.541 162.157 203.166 164.009C205.791 165.86 208.758 169.737 209.794 168.481C210.831 167.226 207.084 163.251 207.084 163.251C207.084 163.251 209.805 165.362 211.327 166.521C212.849 167.68 214.445 169.216 214.69 167.158C214.934 165.1 210.167 161.149 210.167 161.149C210.167 161.149 215.283 163.642 216.044 164.221C216.805 164.802 219.344 165.573 218.721 163.495ZM209.039 154.84C206.816 153.548 204.959 151.092 205.892 150.759C206.826 150.425 210.115 150.689 211.711 150.338C212.308 150.207 212.937 149.899 213.406 149.564C213.31 149.734 213.23 149.957 213.173 150.252C212.815 152.144 215.013 155.1 214.583 155.454C214.154 155.808 211.262 156.132 209.039 154.84Z" fill="#C56E5D"/>
<path d="M205.171 151.066C205.171 151.066 202.48 152.596 199.482 152.596C196.484 152.596 200.094 153.942 202.327 153.269C204.56 152.596 205.171 151.066 205.171 151.066Z" fill="#AF5448"/>
<path d="M193.781 155.093C193.781 155.093 195.616 155.154 198.186 156.5C200.756 157.846 202.102 161.272 202.775 160.721C203.447 160.171 201.612 154.909 193.781 155.093Z" fill="#AF5448"/>
<path d="M210.821 158.205C210.821 158.205 205.197 162.753 204.524 162.814C203.851 162.875 206.844 158.45 210.821 158.205Z" fill="#AF5448"/>
<path d="M123.175 59.8732C123.175 59.8732 120.503 64.9621 124.747 66.3496C128.991 67.7377 136.26 62.9131 139.961 59.3447C139.961 59.3447 135.071 67.2092 127.14 68.4643C119.21 69.7199 121.05 61.6045 123.175 59.8732Z" fill="#FFE6D9"/>
</svg>
