<svg width="17" height="21" viewBox="0 0 17 21" fill="none" xmlns="http://www.w3.org/2000/svg">
<path d="M11.25 6C11.25 6.79565 10.9339 7.55871 10.3713 8.12132C9.80871 8.68393 9.04565 9 8.25 9C7.45435 9 6.69129 8.68393 6.12868 8.12132C5.56607 7.55871 5.25 6.79565 5.25 6C5.25 5.20435 5.56607 4.44129 6.12868 3.87868C6.69129 3.31607 7.45435 3 8.25 3C9.04565 3 9.80871 3.31607 10.3713 3.87868C10.9339 4.44129 11.25 5.20435 11.25 6ZM3.75 16.5C3.55109 16.5 3.36032 16.579 3.21967 16.7197C3.07902 16.8603 3 17.0511 3 17.25C3 17.4489 3.07902 17.6397 3.21967 17.7803C3.36032 17.921 3.55109 18 3.75 18H12.75C12.9489 18 13.1397 17.921 13.2803 17.7803C13.421 17.6397 13.5 17.4489 13.5 17.25C13.5 17.0511 13.421 16.8603 13.2803 16.7197C13.1397 16.579 12.9489 16.5 12.75 16.5H3.75ZM0 2.625C0 1.92881 0.276562 1.26113 0.768845 0.768845C1.26113 0.276562 1.92881 0 2.625 0H13.875C14.5712 0 15.2389 0.276562 15.7312 0.768845C16.2234 1.26113 16.5 1.92881 16.5 2.625V18.375C16.5 19.0712 16.2234 19.7389 15.7312 20.2312C15.2389 20.7234 14.5712 21 13.875 21H2.625C1.92881 21 1.26113 20.7234 0.768845 20.2312C0.276562 19.7389 0 19.0712 0 18.375V2.625ZM2.625 1.5C2.32663 1.5 2.04048 1.61853 1.8295 1.8295C1.61853 2.04048 1.5 2.32663 1.5 2.625V13.5H3.75V11.25C3.75 10.8522 3.90804 10.4706 4.18934 10.1893C4.47064 9.90804 4.85218 9.75 5.25 9.75H11.25C11.6478 9.75 12.0294 9.90804 12.3107 10.1893C12.592 10.4706 12.75 10.8522 12.75 11.25V13.5H15V2.625C15 2.32663 14.8815 2.04048 14.6705 1.8295C14.4595 1.61853 14.1734 1.5 13.875 1.5H2.625ZM1.5 18.375C1.5 18.6734 1.61853 18.9595 1.8295 19.1705C2.04048 19.3815 2.32663 19.5 2.625 19.5H13.875C14.1734 19.5 14.4595 19.3815 14.6705 19.1705C14.8815 18.9595 15 18.6734 15 18.375V15H1.5V18.375Z" fill="white"/>
</svg>
