<svg width="6" height="20" viewBox="0 0 6 20" fill="none" xmlns="http://www.w3.org/2000/svg">
<path fill-rule="evenodd" clip-rule="evenodd" d="M0.5 0C0.367392 0 0.240214 0.0526785 0.146446 0.146447C0.052678 0.240215 0 0.367392 0 0.5V2C0 2.13261 0.052678 2.25979 0.146446 2.35355C0.240214 2.44732 0.367392 2.5 0.5 2.5H1V3.6365C0.853711 3.68822 0.727064 3.78404 0.637514 3.91075C0.547964 4.03747 0.499919 4.18884 0.5 4.344V17.5C0.5 18.163 0.763392 18.7989 1.23223 19.2678C1.70107 19.7366 2.33696 20 3 20C3.66304 20 4.29893 19.7366 4.76777 19.2678C5.23661 18.7989 5.5 18.163 5.5 17.5V4.344C5.50008 4.18884 5.45204 4.03747 5.36249 3.91075C5.27294 3.78404 5.14629 3.68822 5 3.6365V2.5H5.5C5.63261 2.5 5.75979 2.44732 5.85355 2.35355C5.94732 2.25979 6 2.13261 6 2V0.5C6 0.367392 5.94732 0.240215 5.85355 0.146447C5.75979 0.0526785 5.63261 0 5.5 0H0.5ZM2 3.844V2.5H4V3.844C4.00002 3.99908 4.04811 4.15034 4.13766 4.27695C4.2272 4.40356 4.35379 4.49931 4.5 4.551V7H1.5V4.551C1.64629 4.49928 1.77294 4.40346 1.86249 4.27675C1.95204 4.15003 2.00008 3.99916 2 3.844Z" fill="white"/>
</svg>
