<svg width="15" height="15" viewBox="0 0 15 15" fill="none" xmlns="http://www.w3.org/2000/svg">
<path d="M12.6705 0.271427C12.7558 0.18612 12.857 0.118451 12.9685 0.072283C13.08 0.0261153 13.1994 0.00235345 13.3201 0.00235345C13.4407 0.00235345 13.5602 0.0261153 13.6716 0.072283C13.7831 0.118451 13.8844 0.18612 13.9697 0.271427C14.055 0.356733 14.1226 0.458007 14.1688 0.569465C14.215 0.680924 14.2387 0.800385 14.2387 0.921026C14.2387 1.04167 14.215 1.16113 14.1688 1.27259C14.1226 1.38405 14.055 1.48532 13.9697 1.57063L8.42086 7.12103L13.9697 12.6714L14.0881 12.8154C14.2038 12.9923 14.2551 13.2036 14.2334 13.4138C14.2117 13.624 14.1183 13.8203 13.9688 13.9698C13.8194 14.1192 13.623 14.2127 13.4128 14.2344C13.2026 14.2561 12.9913 14.2048 12.8145 14.089L12.6705 13.9706L7.12006 8.42023L1.56966 13.9722C1.48425 14.0575 1.38287 14.1252 1.27132 14.1713C1.15976 14.2174 1.04021 14.2411 0.919496 14.2411C0.79878 14.241 0.67926 14.2171 0.567762 14.1709C0.456263 14.1246 0.354968 14.0568 0.269662 13.9714C0.184355 13.886 0.116707 13.7846 0.0705795 13.6731C0.024452 13.5615 0.000748863 13.442 0.000823152 13.3213C0.000897442 13.2005 0.0247477 13.081 0.0710124 12.9695C0.117277 12.858 0.18505 12.7567 0.270462 12.6714L5.82086 7.12103L0.268862 1.57063L0.152062 1.42663C0.0354166 1.24982 -0.0166435 1.03817 0.00467104 0.827426C0.0259856 0.616681 0.119369 0.419745 0.269055 0.269872C0.41874 0.119998 0.615558 0.0263671 0.826277 0.00478799C1.037 -0.0167912 1.24871 0.0350033 1.42566 0.151426L1.56966 0.271427L7.12006 5.82023L12.6705 0.271427Z" fill="white"/>
</svg>
