<svg width="21" height="20" viewBox="0 0 21 20" fill="none" xmlns="http://www.w3.org/2000/svg">
<path d="M1.50001 10C1.49789 7.8706 2.29511 5.81797 3.73392 4.2482C5.17274 2.67844 7.14834 1.7059 9.26987 1.52298C11.3914 1.34007 13.5043 1.96012 15.1906 3.26045C16.8768 4.56077 18.0136 6.44666 18.376 8.545C18.7941 8.81035 19.1511 9.1614 19.4235 9.57494C19.6958 9.98848 19.8773 10.4551 19.956 10.944C19.9853 10.6327 20 10.318 20 10C20 4.477 15.523 0 10 0C4.47701 0 7.5687e-06 4.477 7.5687e-06 10C-0.00160903 11.312 0.255755 12.6115 0.757346 13.8238C1.25894 15.0362 1.99489 16.1376 2.92301 17.065C3.06439 17.2017 3.25381 17.2774 3.45046 17.2758C3.64711 17.2741 3.83526 17.1954 3.97438 17.0564C4.1135 16.9174 4.19247 16.7293 4.19427 16.5327C4.19607 16.336 4.12056 16.1465 3.98401 16.005C3.19504 15.2169 2.56946 14.2807 2.14319 13.2502C1.71693 12.2197 1.49835 11.1152 1.50001 10ZM16.19 8.014C15.889 7.07775 15.3794 6.22202 14.6997 5.51125C14.02 4.80048 13.1879 4.25321 12.2661 3.91066C11.3442 3.5681 10.3566 3.4392 9.37773 3.53365C8.39883 3.6281 7.45412 3.94344 6.61476 4.45593C5.77539 4.96842 5.06327 5.66469 4.53201 6.4923C4.00075 7.31991 3.66421 8.25728 3.54774 9.23381C3.43127 10.2103 3.53791 11.2006 3.85962 12.1299C4.18133 13.0593 4.70972 13.9035 5.40501 14.599C5.47474 14.6687 5.55751 14.7239 5.64859 14.7616C5.73968 14.7993 5.83729 14.8186 5.93586 14.8186C6.03443 14.8185 6.13203 14.7991 6.22307 14.7613C6.31412 14.7236 6.39684 14.6682 6.46651 14.5985C6.53617 14.5288 6.59142 14.446 6.6291 14.3549C6.66678 14.2638 6.68615 14.1662 6.6861 14.0676C6.68606 13.9691 6.6666 13.8715 6.62883 13.7804C6.59107 13.6894 6.53574 13.6067 6.46601 13.537C5.93132 13.0023 5.52488 12.3533 5.27726 11.6388C5.02965 10.9243 4.94732 10.163 5.03647 9.41206C5.12561 8.66116 5.38392 7.94026 5.79193 7.30361C6.19995 6.66696 6.74706 6.13115 7.39208 5.7365C8.0371 5.34185 8.76324 5.09864 9.51583 5.02518C10.2684 4.95171 11.0279 5.0499 11.7371 5.31237C12.4462 5.57483 13.0866 5.99472 13.6101 6.54045C14.1335 7.08617 14.5263 7.74351 14.759 8.463C15.1982 8.21121 15.6867 8.05767 16.191 8.013M7.50001 10C7.50001 9.33696 7.7634 8.70107 8.23224 8.23223C8.70108 7.76339 9.33697 7.5 10 7.5C10.663 7.5 11.2989 7.76339 11.7678 8.23223C12.2366 8.70107 12.5 9.33696 12.5 10C12.5 10.663 12.2366 11.2989 11.7678 11.7678C11.2989 12.2366 10.663 12.5 10 12.5C9.33697 12.5 8.70108 12.2366 8.23224 11.7678C7.7634 11.2989 7.50001 10.663 7.50001 10ZM10 9C9.73479 9 9.48044 9.10536 9.2929 9.29289C9.10537 9.48043 9.00001 9.73479 9.00001 10C9.00001 10.2652 9.10537 10.5196 9.2929 10.7071C9.48044 10.8946 9.73479 11 10 11C10.2652 11 10.5196 10.8946 10.7071 10.7071C10.8947 10.5196 11 10.2652 11 10C11 9.73479 10.8947 9.48043 10.7071 9.29289C10.5196 9.10536 10.2652 9 10 9ZM19 11.5C19 12.163 18.7366 12.7989 18.2678 13.2678C17.7989 13.7366 17.1631 14 16.5 14C15.837 14 15.2011 13.7366 14.7322 13.2678C14.2634 12.7989 14 12.163 14 11.5C14 10.837 14.2634 10.2011 14.7322 9.73223C15.2011 9.26339 15.837 9 16.5 9C17.1631 9 17.7989 9.26339 18.2678 9.73223C18.7366 10.2011 19 10.837 19 11.5ZM21 16.875C21 18.431 19.714 20 16.5 20C13.286 20 12 18.437 12 16.875V16.772C12 15.792 12.794 15 13.773 15H19.227C20.207 15 21 15.793 21 16.772V16.875Z" fill="white"/>
</svg>
