<svg width="20" height="20" viewBox="0 0 20 20" fill="none" xmlns="http://www.w3.org/2000/svg">
<path d="M6.66724 8.3314C6.66724 8.11038 6.75503 7.89842 6.91131 7.74214C7.06759 7.58586 7.27956 7.49807 7.50057 7.49807H12.5006C12.7216 7.49807 12.9335 7.58586 13.0898 7.74214C13.2461 7.89842 13.3339 8.11038 13.3339 8.3314C13.3339 8.55241 13.2461 8.76437 13.0898 8.92065C12.9335 9.07693 12.7216 9.16473 12.5006 9.16473H7.50057C7.27956 9.16473 7.06759 9.07693 6.91131 8.92065C6.75503 8.76437 6.66724 8.55241 6.66724 8.3314ZM7.50057 10.8314C7.27956 10.8314 7.06759 10.9192 6.91131 11.0755C6.75503 11.2318 6.66724 11.4437 6.66724 11.6647C6.66724 11.8857 6.75503 12.0977 6.91131 12.254C7.06759 12.4103 7.27956 12.4981 7.50057 12.4981H10.8339C11.0549 12.4981 11.2669 12.4103 11.4232 12.254C11.5794 12.0977 11.6672 11.8857 11.6672 11.6647C11.6672 11.4437 11.5794 11.2318 11.4232 11.0755C11.2669 10.9192 11.0549 10.8314 10.8339 10.8314H7.50057ZM0.000575443 9.99806C0.0010007 7.79648 0.72795 5.65656 2.06865 3.91028C3.40936 2.164 5.28888 0.908968 7.41564 0.339872C9.5424 -0.229223 11.7975 -0.0805683 13.8312 0.762775C15.8648 1.60612 17.5633 3.09701 18.6632 5.00417C19.7631 6.91133 20.2029 9.12815 19.9143 11.3107C19.6257 13.4933 18.6249 15.5197 17.0672 17.0755C15.5095 18.6313 13.4819 19.6295 11.2989 19.9153C9.11596 20.2012 6.89969 19.7586 4.9939 18.6564L1.09724 19.9564C0.953278 20.0045 0.798922 20.0123 0.650832 19.9791C0.502742 19.9458 0.366541 19.8728 0.256929 19.7678C0.147318 19.6628 0.0684578 19.5299 0.0288606 19.3834C-0.0107366 19.2368 -0.00956738 19.0823 0.0322422 18.9364L1.21891 14.7847C0.418942 13.3161 5.40331e-05 11.6704 0.000575443 9.99806ZM10.0006 1.66474C8.5292 1.66464 7.08405 2.05412 5.812 2.79358C4.53994 3.53304 3.48636 4.59611 2.75832 5.87473C2.03029 7.15336 1.65378 8.60195 1.66706 10.0733C1.68033 11.5446 2.08292 12.9861 2.83391 14.2514C2.89169 14.3491 2.92888 14.4577 2.94321 14.5703C2.95754 14.6829 2.9487 14.7973 2.91724 14.9064L2.06891 17.8731L4.83224 16.9531C4.9496 16.9139 5.0742 16.9014 5.19701 16.9163C5.31982 16.9313 5.43775 16.9735 5.54224 17.0397C6.63435 17.7309 7.87226 18.1585 9.15811 18.2889C10.444 18.4193 11.7425 18.2487 12.9511 17.7908C14.1597 17.3329 15.2453 16.6001 16.1219 15.6505C16.9986 14.7008 17.6423 13.5602 18.0022 12.3189C18.3622 11.0776 18.4285 9.76957 18.1959 8.49823C17.9632 7.22689 17.4381 6.02708 16.662 4.99364C15.8858 3.9602 14.8799 3.12146 13.7238 2.54371C12.5677 1.96596 11.293 1.66504 10.0006 1.66474Z" fill="white"/>
</svg>
