<svg width="18" height="18" viewBox="0 0 18 18" fill="none" xmlns="http://www.w3.org/2000/svg">
<path d="M9.00303 5.10154e-07C7.44161 -0.000525151 5.90691 0.405187 4.54973 1.17727C3.19255 1.94936 2.05959 3.06125 1.26217 4.4037C0.46475 5.74615 0.030307 7.27296 0.00152905 8.83413C-0.0272489 10.3953 0.350628 11.9371 1.09803 13.308L0.0330302 17.043C-0.00444393 17.1742 -0.00544229 17.313 0.0301427 17.4447C0.0657277 17.5764 0.136548 17.6959 0.234983 17.7903C0.333417 17.8847 0.455738 17.9505 0.588781 17.9806C0.721824 18.0107 0.86055 18.0039 0.99003 17.961L4.49703 16.7925C5.69232 17.4832 7.03048 17.8897 8.408 17.9805C9.78552 18.0713 11.1655 17.844 12.4411 17.3162C13.7167 16.7884 14.8538 15.9742 15.7644 14.9366C16.675 13.899 17.3347 12.6658 17.6925 11.3325C18.0503 9.99915 18.0966 8.60138 17.8277 7.2473C17.5589 5.89323 16.9821 4.61914 16.1421 3.52362C15.3021 2.4281 14.2213 1.54051 12.9834 0.929501C11.7454 0.318497 10.3835 0.000461924 9.00303 5.10154e-07ZM6.00303 7.5C6.00303 7.30109 6.08205 7.11032 6.2227 6.96967C6.36335 6.82902 6.55412 6.75 6.75303 6.75H11.253C11.4519 6.75 11.6427 6.82902 11.7834 6.96967C11.924 7.11032 12.003 7.30109 12.003 7.5C12.003 7.69891 11.924 7.88968 11.7834 8.03033C11.6427 8.17098 11.4519 8.25 11.253 8.25H6.75303C6.55412 8.25 6.36335 8.17098 6.2227 8.03033C6.08205 7.88968 6.00303 7.69891 6.00303 7.5ZM6.75303 9.75H9.75303C9.95194 9.75 10.1427 9.82902 10.2834 9.96967C10.424 10.1103 10.503 10.3011 10.503 10.5C10.503 10.6989 10.424 10.8897 10.2834 11.0303C10.1427 11.171 9.95194 11.25 9.75303 11.25H6.75303C6.55412 11.25 6.36335 11.171 6.2227 11.0303C6.08205 10.8897 6.00303 10.6989 6.00303 10.5C6.00303 10.3011 6.08205 10.1103 6.2227 9.96967C6.36335 9.82902 6.55412 9.75 6.75303 9.75Z" fill="#EFA930"/>
</svg>
