<svg width="18" height="17" viewBox="0 0 18 17" fill="none" xmlns="http://www.w3.org/2000/svg">
<path d="M6.00023 4C6.53066 4 7.03937 3.78929 7.41444 3.41421C7.78952 3.03914 8.00023 2.53043 8.00023 2C8.00023 1.46957 7.78952 0.960859 7.41444 0.585786C7.03937 0.210714 6.53066 0 6.00023 0C5.4698 0 4.96109 0.210714 4.58602 0.585786C4.21094 0.960859 4.00023 1.46957 4.00023 2C4.00023 2.53043 4.21094 3.03914 4.58602 3.41421C4.96109 3.78929 5.4698 4 6.00023 4ZM3.25823 6.9675C3.33529 6.87513 3.41602 6.7859 3.50023 6.7V15.5C3.50007 15.7558 3.59794 16.0019 3.7737 16.1878C3.94946 16.3736 4.18975 16.485 4.44515 16.4991C4.70055 16.5132 4.95164 16.4289 5.14677 16.2635C5.34191 16.0981 5.46625 15.8643 5.49423 15.61L5.89523 12H6.10523L6.50623 15.61C6.53421 15.8643 6.65855 16.0981 6.85369 16.2635C7.04882 16.4289 7.29991 16.5132 7.55531 16.4991C7.81071 16.485 8.051 16.3736 8.22676 16.1878C8.40252 16.0019 8.50039 15.7558 8.50023 15.5V8.68C8.57523 8.282 8.85573 7.7055 9.29823 7.164C9.69473 7.6515 9.96123 8.167 10.0642 8.556C10.0537 9.3815 9.38923 12.471 9.11623 13.7105C9.10118 13.777 9.1001 13.8459 9.11306 13.9129C9.12601 13.9799 9.15272 14.0434 9.19149 14.0995C9.23026 14.1556 9.28024 14.2031 9.33829 14.2389C9.39634 14.2747 9.46119 14.298 9.52873 14.3075C11.3752 14.561 12.9707 14.5605 14.8017 14.3275C15.1432 14.284 15.3427 13.9055 15.2187 13.584C14.8502 12.6275 14.2502 10.641 14.2502 7.839V6.376C14.4452 6.526 14.6502 6.723 14.8542 6.9675C15.3827 7.601 15.7107 8.3265 15.7537 8.7775C15.7757 8.97298 15.8737 9.15199 16.0264 9.27595C16.1791 9.39992 16.3745 9.45891 16.5703 9.44022C16.7661 9.42153 16.9467 9.32665 17.0733 9.17603C17.1998 9.02541 17.2621 8.83111 17.2467 8.635C17.1652 7.777 16.6467 6.7745 16.0062 6.007C15.3842 5.261 14.4467 4.5 13.3952 4.5H11.0812C10.4397 4.5 9.83073 4.7575 9.30023 5.124C8.77173 4.7575 8.16423 4.5 7.52423 4.5H4.71723C3.66573 4.5 2.72873 5.261 2.10623 6.007C1.46623 6.7745 0.947229 7.777 0.865729 8.635C0.850356 8.83111 0.912647 9.02541 1.03918 9.17603C1.16571 9.32665 1.34635 9.42153 1.54218 9.44022C1.738 9.45891 1.93333 9.39992 2.08607 9.27595C2.2388 9.15199 2.33673 8.97298 2.35873 8.7775C2.40173 8.3265 2.72973 7.601 3.25873 6.9675" fill="#00A5B7"/>
<path d="M0 10.75C0 10.4185 0.131696 10.1005 0.366117 9.86612C0.600537 9.6317 0.918479 9.5 1.25 9.5C1.58152 9.5 1.89946 9.6317 2.13388 9.86612C2.3683 10.1005 2.5 10.4185 2.5 10.75V16C2.5 16.1326 2.44732 16.2598 2.35355 16.3536C2.25979 16.4473 2.13261 16.5 2 16.5C1.86739 16.5 1.74021 16.4473 1.64645 16.3536C1.55268 16.2598 1.5 16.1326 1.5 16V10.75C1.5 10.6837 1.47366 10.6201 1.42678 10.5732C1.37989 10.5263 1.3163 10.5 1.25 10.5C1.1837 10.5 1.12011 10.5263 1.07322 10.5732C1.02634 10.6201 1 10.6837 1 10.75V11.2565C1 11.3891 0.947321 11.5163 0.853553 11.6101C0.759785 11.7038 0.632608 11.7565 0.5 11.7565C0.367392 11.7565 0.240215 11.7038 0.146447 11.6101C0.0526785 11.5163 0 11.3891 0 11.2565V10.75ZM12.25 4C12.7804 4 13.2891 3.78929 13.6642 3.41421C14.0393 3.03914 14.25 2.53043 14.25 2C14.25 1.46957 14.0393 0.960859 13.6642 0.585786C13.2891 0.210714 12.7804 0 12.25 0C11.7196 0 11.2109 0.210714 10.8358 0.585786C10.4607 0.960859 10.25 1.46957 10.25 2C10.25 2.53043 10.4607 3.03914 10.8358 3.41421C11.2109 3.78929 11.7196 4 12.25 4ZM16.75 9.5C16.4185 9.5 16.1005 9.6317 15.8661 9.86612C15.6317 10.1005 15.5 10.4185 15.5 10.75V11.2565C15.5 11.3891 15.5527 11.5163 15.6464 11.6101C15.7402 11.7038 15.8674 11.7565 16 11.7565C16.1326 11.7565 16.2598 11.7038 16.3536 11.6101C16.4473 11.5163 16.5 11.3891 16.5 11.2565V10.75C16.5 10.6837 16.5263 10.6201 16.5732 10.5732C16.6201 10.5263 16.6837 10.5 16.75 10.5C16.8163 10.5 16.8799 10.5263 16.9268 10.5732C16.9737 10.6201 17 10.6837 17 10.75V16C17 16.1326 17.0527 16.2598 17.1464 16.3536C17.2402 16.4473 17.3674 16.5 17.5 16.5C17.6326 16.5 17.7598 16.4473 17.8536 16.3536C17.9473 16.2598 18 16.1326 18 16V10.75C18 10.4185 17.8683 10.1005 17.6339 9.86612C17.3995 9.6317 17.0815 9.5 16.75 9.5ZM9.75 16.194V15.076C10.3453 15.1529 10.944 15.1999 11.544 15.217L11.224 16.391C11.1765 16.5666 11.0668 16.719 10.9154 16.8197C10.7639 16.9205 10.581 16.9627 10.4006 16.9386C10.2203 16.9145 10.0549 16.8257 9.93523 16.6887C9.81553 16.5517 9.7497 16.3759 9.75 16.194ZM13.2765 16.391L12.9495 15.1925C13.5522 15.1542 14.1529 15.09 14.75 15V16.194C14.7499 16.3756 14.6838 16.551 14.5642 16.6876C14.4445 16.8242 14.2794 16.9127 14.0994 16.9368C13.9194 16.9608 13.7368 16.9188 13.5855 16.8184C13.4341 16.718 13.3243 16.5662 13.2765 16.391Z" fill="#00A5B7"/>
</svg>
