<svg width="16" height="22" viewBox="0 0 16 22" fill="none" xmlns="http://www.w3.org/2000/svg">
<path d="M15.3383 4H2.57834C2.40821 3.99759 2.24033 3.96074 2.08482 3.89169C1.92932 3.82263 1.78941 3.7228 1.67353 3.5982C1.55766 3.47361 1.46822 3.32683 1.41061 3.16673C1.35301 3.00664 1.32842 2.83653 1.33834 2.66667C1.33751 2.32864 1.4651 2.00291 1.69531 1.75538C1.92551 1.50785 2.24114 1.35699 2.57834 1.33333H15.3383C15.5152 1.33333 15.6847 1.2631 15.8097 1.13807C15.9348 1.01305 16.005 0.843478 16.005 0.666667C16.005 0.489856 15.9348 0.320286 15.8097 0.195262C15.6847 0.0702379 15.5152 0 15.3383 0H2.57834C1.8874 0.0241977 1.23286 0.315796 0.752773 0.813295C0.272687 1.31079 0.0045832 1.9753 0.00500678 2.66667C-0.00166893 2.77545 -0.00166893 2.88455 0.00500678 2.99333C-0.00141642 3.04647 -0.00141642 3.10019 0.00500678 3.15333V18.6667C0.0045832 19.358 0.272687 20.0225 0.752773 20.52C1.23286 21.0175 1.8874 21.3091 2.57834 21.3333H15.3383C15.5152 21.3333 15.6847 21.2631 15.8097 21.1381C15.9348 21.013 16.005 20.8435 16.005 20.6667V4.71333C16.0054 4.53196 15.9367 4.35725 15.8128 4.22474C15.689 4.09223 15.5193 4.01187 15.3383 4Z" fill="white"/>
</svg>
