<svg width="18" height="18" viewBox="0 0 18 18" fill="none" xmlns="http://www.w3.org/2000/svg">
<path d="M15.927 15.3637C16.1819 15.364 16.4271 15.4616 16.6124 15.6366C16.7977 15.8115 16.9093 16.0507 16.9242 16.3051C16.9392 16.5595 16.8564 16.8101 16.6928 17.0055C16.5292 17.201 16.2971 17.3266 16.044 17.3567L15.927 17.3637H8.92704C8.67216 17.3634 8.42701 17.2658 8.24167 17.0909C8.05634 16.9159 7.94481 16.6768 7.92987 16.4223C7.91493 16.1679 7.99772 15.9173 8.16131 15.7219C8.3249 15.5264 8.55695 15.4008 8.81004 15.3707L8.92704 15.3637H15.927ZM13.023 0.731707C13.481 0.274009 14.0987 0.0118418 14.7461 0.000391411C15.3934 -0.0110589 16.02 0.229101 16.4939 0.670317C16.9678 1.11153 17.252 1.71939 17.2867 2.36593C17.3214 3.01248 17.1039 3.64728 16.68 4.13671L16.558 4.26671L5.66204 15.1637C5.56682 15.259 5.45918 15.3411 5.34204 15.4077L5.22204 15.4677L1.41804 17.1977C0.610041 17.5647 -0.219959 16.7807 0.053041 15.9727L0.093041 15.8727L1.82304 12.0677C1.8785 11.9453 1.95014 11.831 2.03604 11.7277L2.12604 11.6277L13.023 0.731707Z" fill="white"/>
</svg>
