<svg width="19" height="18" viewBox="0 0 19 18" fill="none" xmlns="http://www.w3.org/2000/svg">
<path fill-rule="evenodd" clip-rule="evenodd" d="M6.58801 7.82327C6.53198 7.85759 6.48325 7.90261 6.44463 7.95577C6.406 8.00893 6.37823 8.06918 6.36291 8.13307C6.34758 8.19697 6.345 8.26326 6.35532 8.32816C6.36563 8.39305 6.38863 8.45528 6.42301 8.51128C6.88251 9.26028 7.27301 10.0038 7.53301 10.6793C7.58062 10.8031 7.67545 10.9029 7.79665 10.9567C7.91784 11.0106 8.05547 11.0141 8.17926 10.9665C8.30305 10.9189 8.40286 10.8241 8.45673 10.7029C8.5106 10.5817 8.51412 10.4441 8.46651 10.3203C8.17751 9.56828 7.75351 8.76777 7.27551 7.98827C7.20621 7.87524 7.09486 7.79435 6.96593 7.76341C6.837 7.73247 6.70107 7.754 6.58801 7.82327ZM11.795 7.34628C11.902 7.42454 11.9735 7.54208 11.9939 7.67306C12.0142 7.80405 11.9817 7.93775 11.9035 8.04478C11.325 8.83627 10.8155 9.89477 10.457 10.7028C10.4304 10.7628 10.3921 10.817 10.3445 10.8622C10.2969 10.9075 10.2409 10.9429 10.1796 10.9665C10.1183 10.9901 10.053 11.0013 9.98735 10.9997C9.9217 10.998 9.85703 10.9834 9.79701 10.9568C9.737 10.9301 9.68282 10.8919 9.63758 10.8443C9.59233 10.7967 9.55691 10.7407 9.53332 10.6794C9.50974 10.6181 9.49845 10.5528 9.50011 10.4871C9.50178 10.4215 9.51635 10.3568 9.54301 10.2968C9.90501 9.48177 10.45 8.33877 11.0965 7.45477C11.1748 7.3478 11.2923 7.27627 11.4233 7.25593C11.5543 7.23558 11.688 7.26808 11.795 7.34628Z" fill="white"/>
<path fill-rule="evenodd" clip-rule="evenodd" d="M10.62 3.0185C11.791 1.6795 18.0525 0 18.0525 0C18.0525 0 16.988 6.6975 16.0515 7.7685C15.354 8.5665 13.1315 8.068 12.0425 7.7615C12.8565 6.513 13.8 5.2935 14.6295 4.3255C14.7141 4.22463 14.7556 4.09446 14.7448 3.96323C14.734 3.832 14.6719 3.71032 14.572 3.6246C14.472 3.53888 14.3423 3.49604 14.211 3.50538C14.0797 3.51473 13.9573 3.5755 13.8705 3.6745C13.034 4.6505 12.0645 5.8995 11.2155 7.198C10.7385 6.31 9.694 4.0775 10.62 3.0185ZM2.5 12H0V18H2.5V16.9785C3.01 16.9575 3.763 16.9305 4.0235 16.941C4.917 16.9775 5.5835 17.1905 6.2585 17.406C6.8875 17.6065 7.523 17.8095 8.3545 17.873C8.5635 17.889 8.767 17.9095 8.9645 17.929C9.676 18.001 10.3075 18.065 10.8295 17.873C11.4955 17.628 15.3025 15.7645 15.7785 15.274C16.2545 14.784 16.0165 13.46 14.541 13.705C13.813 13.826 12.9695 14.174 12.204 14.4895C11.4185 14.813 10.7155 15.103 10.3055 15.078C9.4965 15.029 7.3555 14.637 7.3555 14.637L9.814 14.667C9.814 14.667 10.1615 14.685 10.639 14.3425C11.1165 14 11.543 13.0185 10.829 13.0185C10.115 13.0185 9.354 12.7735 9.354 12.7735L6.308 12.087C6.308 12.087 5.261 11.891 4.833 12.087C4.48 12.2485 3.009 12.7755 2.5 12.957V12ZM1.439 1.835C1.439 1.835 6.6065 3.221 7.5725 4.3255C8.319 5.179 7.5145 6.9565 7.1095 7.7215C6.57868 6.88794 6.0056 6.08205 5.3925 5.307C5.35182 5.25546 5.30139 5.21243 5.24409 5.18038C5.18678 5.14832 5.12372 5.12787 5.05851 5.12018C4.9933 5.1125 4.92722 5.11774 4.86403 5.13559C4.80085 5.15345 4.74179 5.18357 4.69025 5.22425C4.63871 5.26493 4.59568 5.31536 4.56362 5.37266C4.53157 5.42997 4.51112 5.49303 4.50343 5.55824C4.49575 5.62345 4.50099 5.68953 4.51884 5.75272C4.5367 5.8159 4.56682 5.87496 4.6075 5.9265C5.2034 6.67987 5.76013 7.46341 6.2755 8.274C5.3415 8.527 3.6405 8.8755 3.0905 8.246C2.3175 7.362 1.439 1.8345 1.439 1.8345" fill="white"/>
</svg>
