<svg width="19" height="18" viewBox="0 0 19 18" fill="none" xmlns="http://www.w3.org/2000/svg">
<path d="M11.125 17.4722L4 15.3842V8.64725H6.08C6.18467 8.64725 6.28233 8.65658 6.373 8.67525C6.46433 8.69391 6.55533 8.71991 6.646 8.75325L12.667 10.9632C12.939 11.0592 13.178 11.2476 13.384 11.5282C13.5893 11.8089 13.692 12.0789 13.692 12.3382C13.692 12.5342 13.6353 12.6859 13.522 12.7932C13.4087 12.9006 13.2577 12.9546 13.069 12.9552H11.867C11.489 12.9552 11.138 12.9319 10.814 12.8852C10.4907 12.8386 10.193 12.7662 9.921 12.6682L8.488 12.1662C8.38067 12.1289 8.27633 12.1342 8.175 12.1822C8.07367 12.2302 8.00633 12.2992 7.973 12.3892C7.93967 12.4972 7.948 12.6032 7.998 12.7072C8.048 12.8112 8.12667 12.8816 8.234 12.9182L9.806 13.4432C10.108 13.5499 10.4337 13.6232 10.783 13.6632C11.1317 13.7039 11.4717 13.7242 11.803 13.7242H16.961C17.4303 13.7242 17.8237 13.8709 18.141 14.1642C18.457 14.4576 18.615 14.8366 18.615 15.3012L12.086 17.4612C11.958 17.5019 11.799 17.5232 11.609 17.5252C11.4183 17.5272 11.257 17.5096 11.125 17.4722ZM0 15.7242V9.72425C0 9.41758 0.103 9.16158 0.309 8.95625C0.514333 8.75025 0.770333 8.64725 1.077 8.64725H1.923C2.22967 8.64725 2.48567 8.75025 2.691 8.95625C2.897 9.16225 3 9.41825 3 9.72425V15.7242C3 16.0309 2.897 16.2869 2.691 16.4922C2.48567 16.6982 2.22967 16.8012 1.923 16.8012H1.077C0.770333 16.8012 0.514333 16.6982 0.309 16.4922C0.103 16.2869 0 16.0309 0 15.7242ZM10.54 5.44925L15.88 0.134247C15.974 0.0409135 16.085 -0.00375343 16.213 0.000246574C16.341 0.00424657 16.4533 0.0552469 16.55 0.153247C16.6433 0.24658 16.69 0.361247 16.69 0.497247C16.69 0.633247 16.6433 0.748247 16.55 0.842247L11.106 6.28625C10.9447 6.44758 10.7563 6.52825 10.541 6.52825C10.325 6.52825 10.1363 6.44758 9.975 6.28625L7.355 3.66625C7.25833 3.56891 7.20767 3.45125 7.203 3.31325C7.19833 3.17458 7.25133 3.05658 7.362 2.95925C7.45933 2.86591 7.57733 2.82125 7.716 2.82525C7.854 2.82991 7.97167 2.88091 8.069 2.97825L10.54 5.44925Z" fill="white"/>
</svg>
