<svg width="30" height="30" viewBox="0 0 30 30" fill="none" xmlns="http://www.w3.org/2000/svg">
<path d="M3.51467 15.1112C0.304665 18.6012 0.0579983 23.2359 3.41133 26.5892C6.76467 29.9426 11.3993 29.6959 14.8893 26.4859C16.4633 25.0386 18.412 23.1766 20.794 20.7952C23.1753 18.4132 25.0373 16.4646 26.4847 14.8906C29.6953 11.4006 29.9413 6.76589 26.588 3.41255C23.2347 0.059219 18.6 0.305886 15.11 3.51589C13.536 4.96322 11.5873 6.82522 9.20533 9.20655C6.824 11.5886 4.962 13.5372 3.51467 15.1112Z" fill="white"/>
<path d="M9.20667 9.20867C11.5887 6.82734 13.5367 4.96601 15.1107 3.51867C18.6013 0.308006 23.2353 0.0613392 26.5887 3.41467C29.942 6.76801 29.6953 11.4027 26.4853 14.8927C25.0387 16.4667 23.1767 18.4153 20.7953 20.7967L9.20667 9.20867Z" fill="#00A5B7"/>
<path d="M9.20667 9.208L20.7953 20.7967M3.51467 15.1107C0.304665 18.6007 0.0579983 23.2347 3.41133 26.588C6.76467 29.9413 11.3993 29.6947 14.8893 26.4847C16.4633 25.0373 18.412 23.1753 20.794 20.794C23.1753 18.412 25.0373 16.464 26.4847 14.8893C29.6953 11.3993 29.9413 6.76467 26.588 3.41133C23.2347 0.0579982 18.6 0.304665 15.11 3.51467C13.536 4.962 11.5873 6.824 9.20533 9.20533C6.824 11.5873 4.962 13.5367 3.51467 15.1107Z" stroke="#00A5B7" stroke-width="2" stroke-linecap="round" stroke-linejoin="round"/>
</svg>
