<svg width="24" height="24" viewBox="0 0 24 24" fill="none" xmlns="http://www.w3.org/2000/svg">
<path d="M11.4099 5.505C13.0799 3.835 13.9149 3 14.9519 3C15.9899 3 16.8249 3.835 18.4949 5.505C20.1649 7.175 20.9999 8.01 20.9999 9.048C20.9999 10.085 20.1649 10.92 18.4949 12.59L14.3019 16.784L7.21594 9.698L11.4099 5.505Z" fill="white"/>
<path d="M6.15612 10.759L13.2411 17.844L12.5911 18.494C12.2131 18.873 11.8781 19.208 11.5731 19.5H21.0001C21.199 19.5 21.3898 19.5791 21.5305 19.7197C21.6711 19.8604 21.7501 20.0511 21.7501 20.25C21.7501 20.4489 21.6711 20.6397 21.5305 20.7804C21.3898 20.921 21.199 21 21.0001 21H9.00012C7.98412 20.975 7.15012 20.14 5.50512 18.495C3.83512 16.825 3.00012 15.99 3.00012 14.952C3.00012 13.915 3.83512 13.08 5.50512 11.41L6.15612 10.759Z" fill="white"/>
</svg>
