<svg width="27" height="27" viewBox="0 0 27 27" fill="none" xmlns="http://www.w3.org/2000/svg">
<path d="M0 13.3333C0 5.96933 5.96933 0 13.3333 0C20.6973 0 26.6667 5.96933 26.6667 13.3333C26.6667 20.6973 20.6973 26.6667 13.3333 26.6667C5.96933 26.6667 0 20.6973 0 13.3333ZM9 12C9.44203 12 9.86595 11.8244 10.1785 11.5118C10.4911 11.1993 10.6667 10.7754 10.6667 10.3333C10.6667 9.89131 10.4911 9.46738 10.1785 9.15482C9.86595 8.84226 9.44203 8.66667 9 8.66667C8.55797 8.66667 8.13405 8.84226 7.82149 9.15482C7.50893 9.46738 7.33333 9.89131 7.33333 10.3333C7.33333 10.7754 7.50893 11.1993 7.82149 11.5118C8.13405 11.8244 8.55797 12 9 12ZM19.3333 10.3333C19.3333 9.89131 19.1577 9.46738 18.8452 9.15482C18.5326 8.84226 18.1087 8.66667 17.6667 8.66667C17.2246 8.66667 16.8007 8.84226 16.4882 9.15482C16.1756 9.46738 16 9.89131 16 10.3333C16 10.7754 16.1756 11.1993 16.4882 11.5118C16.8007 11.8244 17.2246 12 17.6667 12C18.1087 12 18.5326 11.8244 18.8452 11.5118C19.1577 11.1993 19.3333 10.7754 19.3333 10.3333ZM9.63467 20.454C10.7762 21.0477 12.0468 21.3498 13.3333 21.3333C14.6197 21.3492 15.8901 21.0471 17.0317 20.454C18.1733 19.8608 19.1508 18.995 19.8773 17.9333C19.9929 17.745 20.0289 17.5185 19.9774 17.3037C19.926 17.0888 19.7913 16.9032 19.603 16.7877C19.4147 16.6721 19.1882 16.6361 18.9734 16.6876C18.7585 16.739 18.5729 16.8737 18.4573 17.062C17.8806 17.8813 17.1121 18.547 16.219 19.001C15.3258 19.455 14.3351 19.6835 13.3333 19.6667C12.3315 19.6831 11.3409 19.4543 10.4477 19.0003C9.55456 18.5464 8.78589 17.8809 8.20867 17.062C8.09312 16.8737 7.9075 16.739 7.69265 16.6876C7.4778 16.6361 7.2513 16.6721 7.063 16.7877C6.8747 16.9032 6.74001 17.0888 6.68856 17.3037C6.63711 17.5185 6.67312 17.745 6.78867 17.9333C7.51491 18.9954 8.49262 19.8614 9.63467 20.454Z" fill="#EFA930"/>
</svg>
