<svg width="24" height="20" viewBox="0 0 24 20" fill="none" xmlns="http://www.w3.org/2000/svg">
<path d="M21.6 19.2H2.4C1.76348 19.2 1.15303 18.9471 0.702944 18.4971C0.252856 18.047 0 17.4365 0 16.8V2.4C0 1.76348 0.252856 1.15303 0.702944 0.702944C1.15303 0.252856 1.76348 0 2.4 0H21.6C22.2365 0 22.847 0.252856 23.2971 0.702944C23.7471 1.15303 24 1.76348 24 2.4V16.8C24 17.4365 23.7471 18.047 23.2971 18.4971C22.847 18.9471 22.2365 19.2 21.6 19.2ZM3.6 10.8V13.2H16.8V10.8H3.6ZM3.6 6V8.4H20.4V6H3.6Z" fill="white"/>
</svg>
