<svg width="17" height="22" viewBox="0 0 17 22" fill="none" xmlns="http://www.w3.org/2000/svg">
<path d="M8.4 16.2C7.79663 16.2001 7.21535 15.973 6.77193 15.5638C6.3285 15.1546 6.05547 14.5934 6.0072 13.992C4.40662 13.4255 3.05766 12.3117 2.19843 10.8472C1.3392 9.38281 1.02495 7.66191 1.31115 5.98832C1.59735 4.31473 2.46561 2.79606 3.76265 1.70038C5.05969 0.604701 6.70211 0.00247254 8.4 7.57128e-08C10.2059 -0.000261662 11.9459 0.678105 13.2751 1.90059C14.6043 3.12308 15.4255 4.80041 15.576 6.6C15.581 6.67806 15.5697 6.75631 15.5429 6.82977C15.516 6.90324 15.4742 6.97032 15.42 7.02674C15.3659 7.08317 15.3005 7.12771 15.2282 7.15754C15.1559 7.18737 15.0782 7.20183 15 7.2C14.8393 7.19597 14.6858 7.13233 14.5693 7.02144C14.4529 6.91056 14.3819 6.76035 14.37 6.6C14.2631 5.539 13.8754 4.52566 13.2468 3.66429C12.6181 2.80292 11.7713 2.12465 10.7934 1.6993C9.81557 1.27396 8.74201 1.11692 7.68328 1.24433C6.62456 1.37175 5.61891 1.77903 4.76989 2.42424C3.92086 3.06945 3.25913 3.92927 2.85282 4.9152C2.44651 5.90113 2.3103 6.97753 2.45821 8.03359C2.60612 9.08964 3.03281 10.0872 3.69435 10.9236C4.3559 11.7599 5.22839 12.4049 6.222 12.792C6.4028 12.4013 6.68533 12.0665 7.04001 11.8226C7.39468 11.5786 7.80844 11.4346 8.23792 11.4055C8.6674 11.3764 9.0968 11.4634 9.48112 11.6573C9.86544 11.8512 10.1905 12.1449 10.4223 12.5076C10.6542 12.8703 10.7841 13.2887 10.7987 13.7189C10.8132 14.1491 10.7118 14.5753 10.505 14.9529C10.2982 15.3304 9.99371 15.6454 9.62336 15.8648C9.25301 16.0842 8.83047 16.2 8.4 16.2ZM2.4108 13.2H2.52C3.22843 13.8949 4.0544 14.4589 4.9596 14.8656C5.22563 15.7433 5.81663 16.4864 6.61196 16.9432C7.40729 17.4 8.34697 17.5359 9.23916 17.3234C10.1313 17.1108 10.9088 16.5658 11.4127 15.7995C11.9167 15.0331 12.1091 14.1034 11.9508 13.2H14.4C15.0365 13.2 15.647 13.4529 16.0971 13.9029C16.5471 14.353 16.8 14.9635 16.8 15.6C16.8 17.6292 15.8004 19.1592 14.238 20.1564C12.6996 21.1368 10.626 21.6 8.4 21.6C6.174 21.6 4.1004 21.1368 2.562 20.1564C0.9996 19.1604 0 17.628 0 15.6C0 14.2644 1.0836 13.2 2.4108 13.2ZM13.2 7.2C13.2003 8.01197 12.9945 8.81073 12.6021 9.52155C12.2096 10.2324 11.6433 10.832 10.956 11.2644C10.6213 10.9271 10.2231 10.6593 9.78442 10.4766C9.34573 10.294 8.87521 10.1999 8.4 10.2C7.92479 10.1999 7.45427 10.294 7.01558 10.4766C6.57689 10.6593 6.17871 10.9271 5.844 11.2644C4.9325 10.6912 4.24021 9.82815 3.8784 8.814C3.69382 8.29592 3.59965 7.74998 3.6 7.2C3.6 5.92696 4.10571 4.70606 5.00589 3.80589C5.90606 2.90571 7.12696 2.4 8.4 2.4C9.67304 2.4 10.8939 2.90571 11.7941 3.80589C12.6943 4.70606 13.2 5.92696 13.2 7.2Z" fill="white"/>
</svg>
