<svg width="18" height="19" viewBox="0 0 18 19" fill="none" xmlns="http://www.w3.org/2000/svg">
<path fill-rule="evenodd" clip-rule="evenodd" d="M8.97774 4.2515C8.96978 4.41424 8.96978 4.57726 8.97774 4.74L8.97474 8.247C8.97374 8.9455 9.25574 9.2175 9.47474 9.346C9.49807 9.35933 9.52124 9.3715 9.54424 9.3825L9.54524 9.2295C9.54524 9.12283 9.5444 9.00617 9.54274 8.8795C9.53774 8.3445 9.53074 7.646 9.60974 6.9455C10.0443 7.72044 10.6775 8.3656 11.4441 8.81458C12.2108 9.26357 13.0833 9.50015 13.9717 9.5C14.6076 9.50046 15.2377 9.37963 15.8282 9.144C16.9597 12.642 17.3662 16.758 16.5287 17.453C15.0297 18.697 12.0347 17.948 10.5377 16.452C9.33474 15.2505 9.43524 12.452 9.51174 10.4305C9.32201 10.3818 9.13983 10.3075 8.97024 10.2095C8.78185 10.0999 8.61373 9.95864 8.47324 9.792C8.32474 9.968 8.15324 10.1045 7.97524 10.2085C7.80591 10.3061 7.62407 10.3801 7.43474 10.4285C7.50724 12.438 7.59574 15.2 6.40274 16.388C4.91124 17.8735 1.92924 18.6145 0.439738 17.3745C-1.04976 16.1345 1.44424 3.993 4.92174 3.995C7.46074 3.9975 7.42374 7.206 7.40474 8.8535C7.40288 9.02916 7.40238 9.20483 7.40324 9.3805C7.42624 9.36917 7.44907 9.357 7.47174 9.344C7.69174 9.216 7.97324 8.944 7.97424 8.2455V0.000499964L8.47424 0H8.97424V1H8.97974V1.0025L8.97774 4.2515ZM15.3502 6.586C15.0834 6.76242 14.7852 6.88599 14.4717 6.95V7.5C14.6043 7.5 14.7315 7.55268 14.8253 7.64645C14.9191 7.74021 14.9717 7.86739 14.9717 8C14.9717 8.13261 14.9191 8.25979 14.8253 8.35355C14.7315 8.44732 14.6043 8.5 14.4717 8.5H13.4717C13.3391 8.5 13.212 8.44732 13.1182 8.35355C13.0244 8.25979 12.9717 8.13261 12.9717 8C12.9717 7.86739 13.0244 7.74021 13.1182 7.64645C13.212 7.55268 13.3391 7.5 13.4717 7.5V6.95C13.1583 6.88599 12.8601 6.76242 12.5932 6.586L12.1787 7C12.2698 7.0943 12.3202 7.2206 12.3191 7.3517C12.3179 7.4828 12.2654 7.60821 12.1726 7.70091C12.0799 7.79361 11.9545 7.8462 11.8234 7.84734C11.6923 7.84848 11.566 7.79808 11.4717 7.707L10.7647 7C10.6737 6.9057 10.6233 6.7794 10.6244 6.6483C10.6255 6.5172 10.6781 6.39179 10.7708 6.29909C10.8635 6.20639 10.9889 6.1538 11.12 6.15266C11.2511 6.15152 11.3774 6.20192 11.4717 6.293L11.8857 5.8785C11.7093 5.61165 11.5857 5.31342 11.5217 5H10.9717C10.9717 5.13261 10.9191 5.25979 10.8253 5.35355C10.7315 5.44732 10.6043 5.5 10.4717 5.5C10.3391 5.5 10.212 5.44732 10.1182 5.35355C10.0244 5.25979 9.97174 5.13261 9.97174 5V4C9.97174 3.86739 10.0244 3.74021 10.1182 3.64645C10.212 3.55268 10.3391 3.5 10.4717 3.5C10.6043 3.5 10.7315 3.55268 10.8253 3.64645C10.9191 3.74021 10.9717 3.86739 10.9717 4H11.5217C11.5867 3.681 11.7117 3.3835 11.8857 3.1215L11.4717 2.707C11.3774 2.79808 11.2511 2.84848 11.12 2.84734C10.9889 2.8462 10.8635 2.79361 10.7708 2.70091C10.6781 2.60821 10.6255 2.4828 10.6244 2.3517C10.6233 2.2206 10.6737 2.0943 10.7647 2L11.1137 1.651L11.1182 1.646L11.1232 1.642L11.4717 1.293C11.566 1.20192 11.6923 1.15152 11.8234 1.15266C11.9545 1.1538 12.0799 1.20639 12.1726 1.29909C12.2654 1.39179 12.3179 1.5172 12.3191 1.6483C12.3202 1.7794 12.2698 1.9057 12.1787 2L12.5932 2.414C12.8601 2.23758 13.1583 2.11401 13.4717 2.05V1.5C13.3391 1.5 13.212 1.44732 13.1182 1.35355C13.0244 1.25979 12.9717 1.13261 12.9717 1C12.9717 0.867392 13.0244 0.740215 13.1182 0.646447C13.212 0.552679 13.3391 0.5 13.4717 0.5H14.4717C14.6043 0.5 14.7315 0.552679 14.8253 0.646447C14.9191 0.740215 14.9717 0.867392 14.9717 1C14.9717 1.13261 14.9191 1.25979 14.8253 1.35355C14.7315 1.44732 14.6043 1.5 14.4717 1.5V2.05C14.7907 2.115 15.0882 2.24 15.3502 2.414L15.7647 2C15.6737 1.9057 15.6233 1.7794 15.6244 1.6483C15.6255 1.5172 15.6781 1.39179 15.7708 1.29909C15.8635 1.20639 15.9889 1.1538 16.12 1.15266C16.2511 1.15152 16.3774 1.20192 16.4717 1.293L17.1787 2C17.2265 2.04612 17.2646 2.1013 17.2908 2.1623C17.317 2.2233 17.3308 2.28891 17.3314 2.3553C17.3319 2.42169 17.3193 2.48753 17.2941 2.54898C17.269 2.61042 17.2319 2.66625 17.1849 2.7132C17.138 2.76014 17.0822 2.79727 17.0207 2.82241C16.9593 2.84755 16.8934 2.8602 16.827 2.85963C16.7606 2.85905 16.695 2.84526 16.634 2.81905C16.573 2.79285 16.5179 2.75475 16.4717 2.707L16.0577 3.1215C16.2312 3.3835 16.3567 3.681 16.4217 4H16.9717C16.9717 3.86739 17.0244 3.74021 17.1182 3.64645C17.212 3.55268 17.3391 3.5 17.4717 3.5C17.6043 3.5 17.7315 3.55268 17.8253 3.64645C17.9191 3.74021 17.9717 3.86739 17.9717 4V5C17.9717 5.13261 17.9191 5.25979 17.8253 5.35355C17.7315 5.44732 17.6043 5.5 17.4717 5.5C17.3391 5.5 17.212 5.44732 17.1182 5.35355C17.0244 5.25979 16.9717 5.13261 16.9717 5H16.4217C16.3577 5.31342 16.2342 5.61165 16.0577 5.8785L16.4717 6.293C16.5179 6.24524 16.573 6.20715 16.634 6.18095C16.695 6.15474 16.7606 6.14095 16.827 6.14038C16.8934 6.1398 16.9593 6.15245 17.0207 6.17759C17.0822 6.20273 17.138 6.23986 17.1849 6.2868C17.2319 6.33375 17.269 6.38958 17.2941 6.45102C17.3193 6.51247 17.3319 6.57831 17.3314 6.6447C17.3308 6.71109 17.317 6.7767 17.2908 6.8377C17.2646 6.8987 17.2265 6.95388 17.1787 7L16.4717 7.707C16.3774 7.79808 16.2511 7.84848 16.12 7.84734C15.9889 7.8462 15.8635 7.79361 15.7708 7.70091C15.6781 7.60821 15.6255 7.4828 15.6244 7.3517C15.6233 7.2206 15.6737 7.0943 15.7647 7L15.3502 6.586Z" fill="#00A5B7"/>
</svg>
