<svg width="18" height="18" viewBox="0 0 18 18" fill="none" xmlns="http://www.w3.org/2000/svg">
<path fill-rule="evenodd" clip-rule="evenodd" d="M12.03 6.68403H15.995C16.317 6.68403 16.635 6.76403 16.92 6.91603C17.205 7.06803 17.452 7.29003 17.637 7.56103C17.8216 7.83416 17.9397 8.14677 17.9817 8.47377C18.0238 8.80078 17.9886 9.13308 17.879 9.44403L15.519 16.645C15.231 17.459 15.039 18 13.635 18C11.563 18 9.359 17.323 7.478 16.744C7.006 16.599 6.554 16.46 6.13 16.34H6.015V6.47803C7.67285 4.84219 9.09877 2.98694 10.253 0.964026C10.4471 0.590526 10.7659 0.29684 11.154 0.134026C11.5386 -0.0263353 11.9679 -0.0433676 12.364 0.0860254C12.76 0.216025 13.1 0.483025 13.324 0.843026C13.549 1.20303 13.644 1.63103 13.593 2.05403L12.03 6.68403ZM1.177 7.00003H4V15C4 15.5305 3.78929 16.0392 3.41421 16.4142C3.03914 16.7893 2.53043 17 2 17C1.46957 17 0.960859 16.7893 0.585786 16.4142C0.210714 16.0392 0 15.5305 0 15V8.17703C0 7.52703 0.528 7.00003 1.177 7.00003Z" fill="white"/>
</svg>
