<svg width="18" height="20" viewBox="0 0 18 20" fill="none" xmlns="http://www.w3.org/2000/svg">
<path fill-rule="evenodd" clip-rule="evenodd" d="M7.796 0.0675365C9.653 -0.350464 11 1.24554 11 2.82354V16.8235C11 18.4015 9.653 19.9975 7.796 19.5795C3.334 18.5755 0 14.5895 0 9.82354C0 5.05754 3.334 1.07154 7.796 0.0675365ZM13.293 6.11654C13.4805 5.92907 13.7348 5.82375 14 5.82375C14.2652 5.82375 14.5195 5.92907 14.707 6.11654L17.707 9.11654C17.8945 9.30406 17.9998 9.55837 17.9998 9.82354C17.9998 10.0887 17.8945 10.343 17.707 10.5305L14.707 13.5305C14.5184 13.7127 14.2658 13.8135 14.0036 13.8112C13.7414 13.8089 13.4906 13.7038 13.3052 13.5184C13.1198 13.3329 13.0146 13.0821 13.0123 12.8199C13.01 12.5577 13.1108 12.3051 13.293 12.1165L14.586 10.8235H6C5.73478 10.8235 5.48043 10.7182 5.29289 10.5306C5.10536 10.3431 5 10.0888 5 9.82354C5 9.55832 5.10536 9.30397 5.29289 9.11643C5.48043 8.92889 5.73478 8.82354 6 8.82354H14.586L13.293 7.53054C13.1055 7.34301 13.0002 7.0887 13.0002 6.82354C13.0002 6.55837 13.1055 6.30406 13.293 6.11654Z" fill="white"/>
</svg>
