<svg width="24" height="24" viewBox="0 0 24 24" fill="none" xmlns="http://www.w3.org/2000/svg">
<g clip-path="url(#clip0_131_2268)">
<path d="M12 3C12.2652 3 12.5196 3.10536 12.7071 3.29289C12.8946 3.48043 13 3.73478 13 4V9C13 9.35106 13.0924 9.69594 13.268 9.99997C13.4435 10.304 13.696 10.5565 14 10.732V7.257C14 6.015 14.995 5 16.233 5C16.605 5 16.971 5.094 17.355 5.307L17.535 5.424C19.23 6.654 20.295 8.459 21.308 11.764C21.7573 13.2333 21.988 14.92 22 16.824C22.016 19.019 20.343 20.848 18.157 20.992L17.92 21C15.75 21 14 19.213 14 17.02V12.874C13.2776 12.6871 12.6219 12.302 12.107 11.762L12 11.644L11.893 11.762C11.3783 12.3018 10.723 12.687 10.001 12.874L10 17.02C10 19.213 8.25001 21 6.08101 21L5.81301 20.99C3.65801 20.848 1.98601 19.019 2.00201 16.825C2.01401 14.9197 2.24467 13.233 2.69401 11.765C3.70501 8.458 4.77001 6.653 6.51601 5.39L6.70401 5.273C7.02988 5.0935 7.39596 4.99957 7.76801 5C9.00501 5 10 6.015 10 7.257L10.001 10.732C10.3049 10.5563 10.5571 10.3038 10.7325 9.9998C10.9078 9.69578 11.0001 9.35097 11 9V4C11 3.73478 11.1054 3.48043 11.2929 3.29289C11.4804 3.10536 11.7348 3 12 3Z" fill="white"/>
<path d="M20.4132 13.0312C19.1996 13.0312 18.1516 13.742 17.6249 14.7787C17.0983 13.742 16.0503 13.0312 14.8367 13.0312C13.097 13.0312 11.6874 14.4901 11.6874 16.2856C11.6874 18.0811 12.7663 19.727 14.1604 21.0789C15.5545 22.4309 17.6249 23.7188 17.6249 23.7188C17.6249 23.7188 19.6283 22.4523 21.0895 21.0789C22.6481 19.6148 23.5624 18.0864 23.5624 16.2856C23.5624 14.4848 22.1529 13.0312 20.4132 13.0312Z" fill="#072445"/>
</g>
<defs>
<clipPath id="clip0_131_2268">
<rect width="24" height="24" fill="white"/>
</clipPath>
</defs>
</svg>
