<svg width="20" height="20" viewBox="0 0 20 20" fill="none" xmlns="http://www.w3.org/2000/svg">
<path fill-rule="evenodd" clip-rule="evenodd" d="M9.58843 0C8.72193 0 8 4.30877e-08 7.42747 0.0771085C6.82217 0.158072 6.27566 0.337349 5.83711 0.775904C5.39759 1.21542 5.21831 1.76193 5.13735 2.36627C5.06024 2.93976 5.06024 3.66265 5.06024 4.52819V4.60337C3.11229 4.66699 1.94217 4.89446 1.12964 5.70795C-1.14901e-07 6.83663 0 8.65446 0 12.2892C0 15.9239 -1.14901e-07 17.7417 1.12964 18.8704C2.25928 19.999 4.07614 20 7.71084 20H11.5663C15.201 20 17.0188 20 18.1475 18.8704C19.2761 17.7407 19.2771 15.9239 19.2771 12.2892C19.2771 8.65446 19.2771 6.83663 18.1475 5.70795C17.3349 4.89446 16.1648 4.66699 14.2169 4.60337V4.52819C14.2169 3.66265 14.2169 2.93976 14.1398 2.36723C14.0588 1.76193 13.8795 1.21542 13.44 0.776868C13.0014 0.337349 12.4549 0.158072 11.8496 0.0771085C11.2771 4.30877e-08 10.5542 0 9.68867 0H9.58843ZM12.7711 4.58024V4.57831C12.7711 3.64916 12.7692 3.02458 12.7075 2.55904C12.6467 2.1147 12.5436 1.92386 12.4183 1.79855C12.293 1.67325 12.1022 1.57012 11.6569 1.5094C11.1923 1.44771 10.5677 1.44578 9.63855 1.44578C8.7094 1.44578 8.08482 1.44771 7.61928 1.51036C7.17494 1.57012 6.9841 1.67325 6.8588 1.79952C6.73349 1.92578 6.63036 2.1147 6.56964 2.55904C6.50892 3.02458 6.50602 3.64916 6.50602 4.57831V4.58024C6.88321 4.57896 7.28482 4.57831 7.71084 4.57831H11.5663C11.9916 4.57831 12.3933 4.57896 12.7711 4.58024ZM13.494 12.2892C13.494 13.3117 13.0878 14.2923 12.3647 15.0154C11.6417 15.7384 10.6611 16.1446 9.63855 16.1446C8.61603 16.1446 7.63539 15.7384 6.91236 15.0154C6.18933 14.2923 5.78313 13.3117 5.78313 12.2892C5.78313 11.2666 6.18933 10.286 6.91236 9.56296C7.63539 8.83993 8.61603 8.43373 9.63855 8.43373C10.6611 8.43373 11.6417 8.83993 12.3647 9.56296C13.0878 10.286 13.494 11.2666 13.494 12.2892Z" fill="#00A5B7"/>
</svg>
