<svg width="18" height="17" viewBox="0 0 18 17" fill="none" xmlns="http://www.w3.org/2000/svg">
<path d="M0 3.125C0 2.2962 0.32924 1.50134 0.915291 0.915291C1.50134 0.32924 2.2962 0 3.125 0H14.375C15.2038 0 15.9987 0.32924 16.5847 0.915291C17.1708 1.50134 17.5 2.2962 17.5 3.125V9.375C17.5 9.78538 17.4192 10.1917 17.2621 10.5709C17.1051 10.95 16.8749 11.2945 16.5847 11.5847C16.2945 11.8749 15.95 12.1051 15.5709 12.2621C15.1917 12.4192 14.7854 12.5 14.375 12.5H9.61L5.78125 15.85C5.60409 16.0049 5.38607 16.1054 5.15326 16.1397C4.92045 16.1739 4.68271 16.1404 4.46845 16.0431C4.2542 15.9458 4.07251 15.7888 3.9451 15.591C3.81769 15.3932 3.74996 15.1628 3.75 14.9275V12.5H3.125C2.2962 12.5 1.50134 12.1708 0.915291 11.5847C0.32924 10.9987 0 10.2038 0 9.375V3.125ZM3.125 1.25C2.62772 1.25 2.15081 1.44754 1.79917 1.79917C1.44754 2.15081 1.25 2.62772 1.25 3.125V9.375C1.25 9.87228 1.44754 10.3492 1.79917 10.7008C2.15081 11.0525 2.62772 11.25 3.125 11.25H5V14.8725L9.14 11.25H14.375C14.8723 11.25 15.3492 11.0525 15.7008 10.7008C16.0525 10.3492 16.25 9.87228 16.25 9.375V3.125C16.25 2.62772 16.0525 2.15081 15.7008 1.79917C15.3492 1.44754 14.8723 1.25 14.375 1.25H3.125Z" fill="white"/>
</svg>
