<svg width="23" height="17" viewBox="0 0 23 17" fill="none" xmlns="http://www.w3.org/2000/svg">
<path d="M21.9467 8.30989C21.8633 8.16325 21.7515 8.03468 21.6179 7.93167C21.4844 7.82866 21.3316 7.75327 21.1686 7.70989C20.4291 7.52078 19.6631 7.45739 18.9026 7.52239C19.3404 5.58833 19.0545 4.06207 18.7667 3.17239C18.6663 2.85809 18.4524 2.59246 18.1667 2.42729C17.8811 2.26211 17.5442 2.20923 17.2217 2.27895C16.2207 2.50345 15.273 2.92092 14.4317 3.50801C13.8462 2.23432 12.961 1.12135 11.8517 0.264262C11.6241 0.0927596 11.3468 0 11.0619 0C10.7769 0 10.4996 0.0927596 10.272 0.264262C9.16333 1.12173 8.27849 2.23461 7.69295 3.50801C6.85137 2.92081 5.90337 2.50333 4.90201 2.27895C4.57951 2.20932 4.24263 2.26236 3.95713 2.42773C3.67163 2.5931 3.45801 2.85893 3.35795 3.17332C3.07014 4.06301 2.7842 5.58926 3.22201 7.52332C2.46153 7.45833 1.69553 7.52172 0.956073 7.71082C0.79305 7.7542 0.640291 7.8296 0.506698 7.93261C0.373105 8.03562 0.261351 8.16419 0.177948 8.31082C0.0902962 8.46152 0.033546 8.62818 0.011011 8.80106C-0.011524 8.97393 0.000607884 9.14956 0.0466982 9.3177C0.357011 10.4689 1.31232 12.6571 4.21107 14.3924C7.10982 16.1277 9.68326 16.1258 11.0623 16.1258C12.4414 16.1258 15.0111 16.1258 17.9117 14.3924C20.8123 12.6589 21.7658 10.4689 22.0761 9.31676C22.1224 9.14875 22.1349 8.97318 22.1127 8.80031C22.0905 8.62744 22.034 8.46072 21.9467 8.30989ZM14.8573 4.5852C15.6292 4.00316 16.5155 3.59101 17.4579 3.37582C17.508 3.36561 17.5601 3.37433 17.6041 3.40031C17.6481 3.42629 17.6808 3.46768 17.6961 3.51645C18.0654 4.66207 18.4283 7.03207 16.7033 10.0321C16.0107 11.2153 15.1232 12.273 14.0783 13.1605C14.7983 11.9071 15.3748 10.213 15.3748 7.98551C15.3836 6.83181 15.2089 5.68405 14.8573 4.5852ZM4.42857 3.51926C4.44324 3.46997 4.47579 3.42793 4.51984 3.4014C4.56389 3.37486 4.61627 3.36574 4.6667 3.37582C5.60917 3.59101 6.49545 4.00316 7.26732 4.5852C6.9157 5.68405 6.74102 6.83181 6.74982 7.98551C6.74982 10.213 7.32639 11.9089 8.04451 13.1577C6.99927 12.2705 6.11173 11.2127 5.41951 10.0293C3.69639 7.03207 4.0592 4.66207 4.42857 3.51926ZM4.78857 13.4258C2.2292 11.8968 1.39951 10.0114 1.13232 9.01957C1.12532 8.99438 1.12345 8.96803 1.12683 8.9421C1.13021 8.91617 1.13878 8.89119 1.15201 8.86864C1.17229 8.83237 1.20593 8.80546 1.24576 8.79364C2.00345 8.60546 2.79121 8.57135 3.56232 8.69332C3.80007 9.35203 4.09592 9.98828 4.44639 10.5946C5.40823 12.2544 6.71984 13.685 8.29014 14.7871C7.05217 14.5421 5.86693 14.0814 4.78857 13.4258ZM11.0623 14.8939C10.2486 14.3127 7.87482 12.2502 7.87482 7.98551C7.87482 3.92051 10.0254 1.85989 10.9498 1.16239C10.9823 1.13805 11.0218 1.12489 11.0623 1.12489C11.1029 1.12489 11.1424 1.13805 11.1748 1.16239C12.0992 1.85989 14.2498 3.92051 14.2498 7.98551C14.2498 12.2764 11.8883 14.3136 11.0623 14.8939ZM20.9904 9.02332C20.7233 10.0114 19.8936 11.8968 17.3342 13.4296C16.2547 14.0838 15.0685 14.543 13.8298 14.7861C15.4001 13.6841 16.7117 12.2535 17.6736 10.5936C18.0256 9.98781 18.323 9.35187 18.5623 8.69332C19.3343 8.57232 20.1227 8.60771 20.8808 8.79739C20.9206 8.80921 20.9542 8.83612 20.9745 8.87239C20.9874 8.89507 20.9957 8.92012 20.9987 8.94605C21.0018 8.97198 20.9996 8.99825 20.9923 9.02332H20.9904Z" fill="white"/>
</svg>
