<svg width="23" height="17" viewBox="0 0 23 17" fill="none" xmlns="http://www.w3.org/2000/svg">
<path d="M22.2962 8.40281C22.2006 8.23473 22.0724 8.0874 21.9191 7.96941C21.7659 7.85142 21.5907 7.76515 21.4037 7.71563C20.7255 7.54118 20.0247 7.471 19.3253 7.5075C19.7003 5.64656 19.4191 4.17469 19.1378 3.30188C19.0231 2.94339 18.7791 2.64041 18.4533 2.45187C18.1276 2.26334 17.7433 2.20275 17.3753 2.28188C16.4213 2.49428 15.5142 2.87936 14.6987 3.41812C14.1015 2.19814 13.2319 1.13165 12.1572 0.300937C11.8967 0.105596 11.5799 0 11.2544 0C10.9288 0 10.612 0.105596 10.3516 0.300937C9.27513 1.13113 8.40394 2.19765 7.80531 3.41812C6.98985 2.87936 6.08274 2.49428 5.12875 2.28188C4.76086 2.20234 4.37653 2.26278 4.05081 2.45139C3.72509 2.63999 3.48135 2.94322 3.36718 3.30188C3.08593 4.17469 2.80468 5.64563 3.17406 7.5075C2.4747 7.471 1.77386 7.54118 1.09562 7.71563C0.90867 7.76515 0.733461 7.85142 0.580222 7.96941C0.426984 8.0874 0.298788 8.23473 0.20312 8.40281C0.103125 8.57487 0.0383654 8.7651 0.012613 8.96243C-0.0131394 9.15975 0.000630252 9.36023 0.0531201 9.55219C0.370933 10.7316 1.34687 12.9731 4.30281 14.7394C7.25875 16.5056 9.85562 16.5 11.2544 16.5C12.6531 16.5 15.2547 16.5 18.1919 14.7394C21.1478 12.9731 22.1237 10.7316 22.4416 9.55219C22.4947 9.36054 22.5093 9.16023 22.4843 8.9629C22.4594 8.76558 22.3955 8.57519 22.2962 8.40281ZM5.07156 13.4522C2.57499 11.9597 1.76406 10.1297 1.49968 9.15937C2.18944 8.98904 2.90535 8.95181 3.60906 9.04969C3.84396 9.67902 4.13089 10.2877 4.46687 10.8694C5.29177 12.2915 6.37242 13.5488 7.65437 14.5781C6.74789 14.3174 5.87954 13.9389 5.07156 13.4522ZM11.2497 14.85C10.375 14.1994 8.24968 12.2034 8.24968 8.17219C8.24968 4.19062 10.3478 2.17875 11.2497 1.5C12.1516 2.18062 14.2497 4.1925 14.2497 8.17406C14.2497 12.2034 12.1244 14.1994 11.2497 14.85ZM20.9997 9.16125C20.74 10.1213 19.9309 11.9559 17.4287 13.4522C16.6207 13.9385 15.7524 14.3168 14.8459 14.5772C16.1279 13.5479 17.2085 12.2905 18.0334 10.8684C18.3694 10.2868 18.6563 9.67808 18.8912 9.04875C19.5948 8.95183 20.3103 8.9897 20.9997 9.16031V9.16125Z" fill="#EFA930"/>
</svg>
