<svg width="18" height="15" viewBox="0 0 18 15" fill="none" xmlns="http://www.w3.org/2000/svg">
<path d="M14.4167 10.25C14.5833 10.0833 14.7814 10 15.0108 10C15.2403 10 15.4381 10.0833 15.6042 10.25L16.9167 11.5833C17.0833 11.75 17.1667 11.9444 17.1667 12.1667C17.1667 12.3889 17.0833 12.5833 16.9167 12.75C16.75 12.9167 16.5556 13 16.3333 13C16.1111 13 15.9167 12.9167 15.75 12.75L14.4167 11.4375C14.25 11.2708 14.1667 11.0731 14.1667 10.8442C14.1667 10.6153 14.25 10.4172 14.4167 10.25ZM15.25 0.25C15.4167 0.416667 15.5 0.614722 15.5 0.844167C15.5 1.07361 15.4167 1.27139 15.25 1.4375L13.9375 2.75C13.7708 2.91667 13.5731 3 13.3442 3C13.1153 3 12.9172 2.91667 12.75 2.75C12.5828 2.58333 12.4994 2.38556 12.5 2.15667C12.5006 1.92778 12.5839 1.72972 12.75 1.5625L14.0833 0.25C14.25 0.0833333 14.4444 0 14.6667 0C14.8889 0 15.0833 0.0833333 15.25 0.25ZM1.91667 0.25C2.08334 0.0833333 2.28139 0 2.51084 0C2.74028 0 2.93806 0.0833333 3.10417 0.25L4.41667 1.58333C4.58334 1.75 4.66667 1.94444 4.66667 2.16667C4.66667 2.38889 4.58334 2.58333 4.41667 2.75C4.25 2.91667 4.05223 3 3.82334 3C3.59445 3 3.39639 2.91667 3.22917 2.75L1.91667 1.4375C1.75 1.27083 1.66667 1.07306 1.66667 0.844167C1.66667 0.615278 1.75 0.417222 1.91667 0.25ZM2.75 10.25C2.91667 10.4167 3 10.6147 3 10.8442C3 11.0736 2.91667 11.2714 2.75 11.4375L1.4375 12.75C1.27084 12.9167 1.07306 13 0.844169 13C0.615281 13 0.417225 12.9167 0.250003 12.75C0.0827805 12.5833 -0.000552796 12.3856 2.75938e-06 12.1567C0.000558315 11.9278 0.0838916 11.7297 0.250003 11.5625L1.58334 10.25C1.75 10.0833 1.94445 10 2.16667 10C2.38889 10 2.58334 10.0833 2.75 10.25ZM8.58334 12.1458L5.125 14.2292C4.97222 14.3264 4.8125 14.3681 4.64584 14.3542C4.47917 14.3403 4.33334 14.2847 4.20834 14.1875C4.08334 14.0903 3.98611 13.9689 3.91667 13.8233C3.84722 13.6778 3.83334 13.5144 3.875 13.3333L4.79167 9.39583L1.72917 6.75C1.59028 6.625 1.50361 6.4825 1.46917 6.3225C1.43473 6.1625 1.445 6.00639 1.5 5.85417C1.555 5.70195 1.63834 5.57694 1.75 5.47917C1.86167 5.38139 2.01445 5.31889 2.20834 5.29167L6.25 4.9375L7.8125 1.22917C7.88195 1.0625 7.98973 0.9375 8.13584 0.854167C8.28195 0.770833 8.43111 0.729167 8.58334 0.729167C8.73556 0.729167 8.88472 0.770833 9.03084 0.854167C9.17695 0.9375 9.28473 1.0625 9.35417 1.22917L10.9167 4.9375L14.9583 5.29167C15.1528 5.31945 15.3056 5.38194 15.4167 5.47917C15.5278 5.57639 15.6111 5.70139 15.6667 5.85417C15.7222 6.00695 15.7328 6.16333 15.6983 6.32333C15.6639 6.48333 15.5769 6.62556 15.4375 6.75L12.375 9.39583L13.2917 13.3333C13.3333 13.5139 13.3194 13.6772 13.25 13.8233C13.1806 13.9694 13.0833 14.0908 12.9583 14.1875C12.8333 14.2842 12.6875 14.3397 12.5208 14.3542C12.3542 14.3686 12.1944 14.3269 12.0417 14.2292L8.58334 12.1458Z" fill="white"/>
</svg>
