<svg width="17" height="21" viewBox="0 0 17 21" fill="none" xmlns="http://www.w3.org/2000/svg">
<path d="M7.875 15C8.37228 15 8.8492 14.8025 9.20083 14.4508C9.55246 14.0992 9.75 13.6223 9.75 13.125C9.75 12.6277 9.55246 12.1508 9.20083 11.7992C8.8492 11.4475 8.37228 11.25 7.875 11.25C7.37772 11.25 6.9008 11.4475 6.54917 11.7992C6.19754 12.1508 6 12.6277 6 13.125C6 13.6223 6.19754 14.0992 6.54917 14.4508C6.9008 14.8025 7.37772 15 7.875 15Z" fill="white"/>
<path fill-rule="evenodd" clip-rule="evenodd" d="M1.875 0H5.25C6.24456 0 7.19839 0.395088 7.90165 1.09835C8.60491 1.80161 9 2.75544 9 3.75V5.625C9 6.661 9.84 7.5 10.875 7.5H12.75C13.7446 7.5 14.6984 7.89509 15.4017 8.59835C16.1049 9.30161 16.5 10.2554 16.5 11.25V19.125C16.5 20.16 15.66 21 14.625 21H1.875C1.37772 21 0.900805 20.8025 0.549175 20.4508C0.197544 20.0992 0 19.6223 0 19.125V1.875C0 0.839 0.84 0 1.875 0ZM7.875 16.5C8.535 16.5 9.152 16.31 9.672 15.982L10.72 17.03C10.8622 17.1625 11.0502 17.2346 11.2445 17.2312C11.4388 17.2277 11.6242 17.149 11.7616 17.0116C11.899 16.8742 11.9777 16.6888 11.9812 16.4945C11.9846 16.3002 11.9125 16.1122 11.78 15.97L10.733 14.922C11.1315 14.2885 11.3081 13.5406 11.2351 12.7958C11.1621 12.051 10.8436 11.3515 10.3297 10.8075C9.81582 10.2634 9.13568 9.90563 8.39625 9.79031C7.65681 9.67499 6.90001 9.80871 6.24487 10.1704C5.58972 10.5322 5.07338 11.1014 4.77704 11.7886C4.48071 12.4758 4.42118 13.242 4.60783 13.9667C4.79448 14.6915 5.21671 15.3336 5.80814 15.7922C6.39956 16.2507 7.12662 16.4997 7.875 16.5Z" fill="white"/>
<path d="M10.5001 3.74992C10.5018 2.48846 10.0476 1.26888 9.22107 0.315918C10.8943 0.756071 12.4206 1.63265 13.644 2.85603C14.8673 4.07941 15.7439 5.60572 16.1841 7.27892C15.2311 6.4524 14.0115 5.99817 12.7501 5.99992H10.8751C10.7756 5.99992 10.6802 5.96041 10.6099 5.89008C10.5396 5.81976 10.5001 5.72437 10.5001 5.62492V3.74992Z" fill="white"/>
</svg>
