<svg width="18" height="20" viewBox="0 0 18 20" fill="none" xmlns="http://www.w3.org/2000/svg">
<path d="M2 16C1.45 16 0.979333 15.8043 0.588 15.413C0.196666 15.0217 0.000666667 14.5507 0 14V13.2C0 12.6333 0.146 12.1127 0.438 11.638C0.73 11.1633 1.11733 10.8007 1.6 10.55C2.63333 10.0333 3.68333 9.646 4.75 9.388C5.81667 9.13 6.9 9.00067 8 9C8.18333 9 8.36267 9.00433 8.538 9.013C8.71333 9.02167 8.89233 9.034 9.075 9.05C9.34167 9.08333 9.56267 9.196 9.738 9.388C9.91333 9.58 10.0007 9.809 10 10.075V15C10 15.2833 9.904 15.521 9.712 15.713C9.52 15.905 9.28267 16.0007 9 16H2ZM8 8C6.9 8 5.95833 7.60833 5.175 6.825C4.39167 6.04167 4 5.1 4 4C4 2.9 4.39167 1.95833 5.175 1.175C5.95833 0.391667 6.9 0 8 0C9.1 0 10.0417 0.391667 10.825 1.175C11.6083 1.95833 12 2.9 12 4C12 5.1 11.6083 6.04167 10.825 6.825C10.0417 7.60833 9.1 8 8 8ZM14 15H13C12.7167 15 12.4793 14.904 12.288 14.712C12.0967 14.52 12.0007 14.2827 12 14V10C12 9.71667 12.096 9.47933 12.288 9.288C12.48 9.09667 12.7173 9.00067 13 9H16.775C17.0583 9 17.275 9.11667 17.425 9.35C17.575 9.58333 17.5833 9.825 17.45 10.075L16 13H16.7C16.9833 13 17.1957 13.125 17.337 13.375C17.4783 13.625 17.4827 13.875 17.35 14.125L14.475 19.175C14.4083 19.2917 14.3123 19.3333 14.187 19.3C14.0617 19.2667 13.9993 19.1833 14 19.05V15Z" fill="white"/>
</svg>
