<svg width="22" height="22" viewBox="0 0 22 22" fill="none" xmlns="http://www.w3.org/2000/svg">
<rect x="0.5" y="0.5" width="21" height="21" rx="3.5" stroke="#00A5B7"/>
<path d="M9.24135 16L7.08535 12.192H6.16135V16H4.20135V6.228H7.86935C8.62535 6.228 9.26935 6.36333 9.80135 6.634C10.3334 6.89533 10.73 7.25467 10.9914 7.712C11.262 8.16 11.3974 8.664 11.3974 9.224C11.3974 9.868 11.2107 10.4513 10.8374 10.974C10.464 11.4873 9.90869 11.842 9.17135 12.038L11.5094 16H9.24135ZM6.16135 10.722H7.79935C8.33135 10.722 8.72802 10.596 8.98935 10.344C9.25069 10.0827 9.38135 9.72333 9.38135 9.266C9.38135 8.818 9.25069 8.47267 8.98935 8.23C8.72802 7.978 8.33135 7.852 7.79935 7.852H6.16135V10.722ZM17.4541 16L15.8581 13.592L14.4441 16H12.3441L14.8781 12.108L12.3161 8.244H14.5281L16.1101 10.638L17.5381 8.244H19.6381L17.0901 12.108L19.6661 16H17.4541Z" fill="#00A5B7"/>
</svg>
