<svg width="23" height="22" viewBox="0 0 23 22" fill="none" xmlns="http://www.w3.org/2000/svg">
<path fill-rule="evenodd" clip-rule="evenodd" d="M12.207 3V0H10.207V3H11.207C8.68744 3 6.27108 4.00089 4.48949 5.78249C2.70789 7.56408 1.707 9.98044 1.707 12.5C1.707 15.0196 2.70789 17.4359 4.48949 19.2175C6.27108 20.9991 8.68744 22 11.207 22C13.7266 22 16.1429 20.9991 17.9245 19.2175C19.7061 17.4359 20.707 15.0196 20.707 12.5C20.707 9.98044 19.7061 7.56408 17.9245 5.78249C16.1429 4.00089 13.7266 3 11.207 3H12.207ZM1.414 6.207L5.914 1.707L4.5 0.293L0 4.793L1.414 6.207ZM16.5 1.707L21 6.207L22.414 4.793L17.914 0.293L16.5 1.707ZM10.207 7V13H14.707V11H12.207V7H10.207Z" fill="white"/>
</svg>
