<svg width="24" height="24" viewBox="0 0 24 24" fill="none" xmlns="http://www.w3.org/2000/svg">
<path d="M6.99204 14.502C6.72682 14.502 6.47246 14.6074 6.28493 14.7949C6.09739 14.9824 5.99204 15.2368 5.99204 15.502V17.284C4.70295 15.8265 3.99158 13.9478 3.99204 12.002C3.99086 11.7079 4.00823 11.414 4.04404 11.122C4.06312 10.9901 4.05563 10.8557 4.02203 10.7267C3.98842 10.5977 3.92937 10.4768 3.84835 10.371C3.76732 10.2651 3.66596 10.1766 3.55022 10.1105C3.43448 10.0444 3.30669 10.0021 3.17437 9.98609C3.04205 9.97009 2.90786 9.98071 2.7797 10.0173C2.65154 10.0539 2.53199 10.1158 2.42808 10.1992C2.32417 10.2827 2.23799 10.3861 2.17462 10.5034C2.11124 10.6206 2.07194 10.7494 2.05904 10.882C2.01343 11.2536 1.99105 11.6276 1.99204 12.002C1.99304 14.3883 2.85074 16.6948 4.40904 18.502H2.99204C2.72682 18.502 2.47247 18.6074 2.28493 18.7949C2.09739 18.9824 1.99204 19.2368 1.99204 19.502C1.99204 19.7672 2.09739 20.0216 2.28493 20.2091C2.47247 20.3967 2.72682 20.502 2.99204 20.502H6.99204C7.14846 20.5001 7.30216 20.4609 7.44029 20.3874C7.57842 20.314 7.69698 20.2086 7.78604 20.08L7.82304 20.037C7.83004 20.027 7.83004 20.015 7.83604 20.005C7.88325 19.9244 7.91893 19.8375 7.94204 19.747C7.95683 19.6959 7.96753 19.6438 7.97404 19.591C7.97704 19.561 7.99204 19.534 7.99204 19.502V15.502C7.99204 15.2368 7.88668 14.9824 7.69914 14.7949C7.51161 14.6074 7.25725 14.502 6.99204 14.502ZM8.49203 6.00201H6.70904C8.16679 4.7127 10.0459 4.00131 11.992 4.00201C12.2862 4.00117 12.5801 4.01887 12.872 4.05501C13.1355 4.08683 13.4009 4.01268 13.6097 3.84887C13.8185 3.68506 13.9537 3.445 13.9855 3.18151C14.0174 2.91802 13.9432 2.65267 13.7794 2.44385C13.6156 2.23503 13.3755 2.09983 13.112 2.06801C12.7404 2.02274 12.3664 2.00069 11.992 2.00201C9.60579 2.00302 7.29921 2.86071 5.49204 4.41901V3.00201C5.49204 2.73679 5.38668 2.48244 5.19914 2.2949C5.01161 2.10737 4.75725 2.00201 4.49204 2.00201C4.22682 2.00201 3.97247 2.10737 3.78493 2.2949C3.59739 2.48244 3.49204 2.73679 3.49204 3.00201V7.00201C3.49852 7.06814 3.51159 7.13347 3.53104 7.19701C3.55588 7.32018 3.60372 7.43756 3.67204 7.54301L3.68404 7.56001C3.75043 7.65558 3.83301 7.73883 3.92804 7.80601C3.93904 7.81401 3.94504 7.82601 3.95604 7.83401C3.97004 7.84401 3.98604 7.84701 4.00104 7.85501C4.0581 7.88891 4.1184 7.91705 4.18104 7.93901C4.26528 7.96823 4.35306 7.98606 4.44204 7.99201C4.46004 7.99201 4.47404 8.00201 4.49204 8.00201H8.49203C8.75725 8.00201 9.01161 7.89665 9.19914 7.70912C9.38668 7.52158 9.49203 7.26722 9.49203 7.00201C9.49203 6.73679 9.38668 6.48244 9.19914 6.2949C9.01161 6.10737 8.75725 6.00201 8.49203 6.00201ZM20.452 16.806C20.4271 16.6832 20.3792 16.5662 20.311 16.461L20.3 16.444C20.2333 16.3484 20.1504 16.2651 20.055 16.198C20.044 16.19 20.039 16.178 20.027 16.17C20.017 16.163 20.004 16.163 19.993 16.156C19.8657 16.0862 19.7268 16.0402 19.583 16.02C19.551 16.017 19.524 16.002 19.492 16.002H15.492C15.2268 16.002 14.9725 16.1074 14.7849 16.2949C14.5974 16.4824 14.492 16.7368 14.492 17.002C14.492 17.2672 14.5974 17.5216 14.7849 17.7091C14.9725 17.8967 15.2268 18.002 15.492 18.002H17.274C15.8165 19.2911 13.9378 20.0025 11.992 20.002C11.6979 20.0025 11.4039 19.9845 11.112 19.948C10.8485 19.9162 10.5832 19.9903 10.3744 20.1541C10.1656 20.318 10.0304 20.558 9.99854 20.8215C9.96671 21.085 10.0409 21.3503 10.2047 21.5592C10.3685 21.768 10.6085 21.9032 10.872 21.935C11.2436 21.9806 11.6177 22.003 11.992 22.002C14.3783 22.001 16.6849 21.1433 18.492 19.585V21.002C18.492 21.2672 18.5974 21.5216 18.7849 21.7091C18.9725 21.8967 19.2268 22.002 19.492 22.002C19.7573 22.002 20.0116 21.8967 20.1991 21.7091C20.3867 21.5216 20.492 21.2672 20.492 21.002V17.002C20.4852 16.9358 20.4718 16.8695 20.452 16.806ZM20.992 5.50201C21.2573 5.50201 21.5116 5.39665 21.6991 5.20912C21.8867 5.02158 21.992 4.76723 21.992 4.50201C21.992 4.23679 21.8867 3.98244 21.6991 3.7949C21.5116 3.60737 21.2573 3.50201 20.992 3.50201H16.992C16.9269 3.50869 16.8626 3.52176 16.8 3.54101L16.793 3.54201C16.672 3.56726 16.5567 3.61473 16.453 3.68201L16.433 3.69501C16.3378 3.7615 16.2549 3.84407 16.188 3.93901C16.18 3.94901 16.168 3.95501 16.16 3.96601C16.153 3.97601 16.153 3.98901 16.146 4.00001C16.0759 4.12824 16.0298 4.26821 16.01 4.41301C16.007 4.44301 15.992 4.47001 15.992 4.50201V8.50201C15.992 8.76722 16.0974 9.02158 16.2849 9.20912C16.4725 9.39665 16.7268 9.50201 16.992 9.50201C17.2573 9.50201 17.5116 9.39665 17.6991 9.20912C17.8867 9.02158 17.992 8.76722 17.992 8.50201V6.71901C19.2805 8.17725 19.9918 10.0561 19.992 12.002C19.9929 12.2962 19.9752 12.5901 19.939 12.882C19.9071 13.1452 19.9811 13.4103 20.1446 13.6191C20.3081 13.8278 20.5478 13.963 20.811 13.995C20.8515 13.9998 20.8923 14.0022 20.933 14.002C21.1772 14.0016 21.4127 13.9119 21.5953 13.7498C21.7778 13.5877 21.8947 13.3644 21.924 13.122C21.97 12.7505 21.9927 12.3764 21.992 12.002C21.991 9.61576 21.1333 7.30918 19.575 5.50201H20.992Z" fill="white"/>
</svg>
