<svg width="23" height="23" viewBox="0 0 23 23" fill="none" xmlns="http://www.w3.org/2000/svg">
<path fill-rule="evenodd" clip-rule="evenodd" d="M9.268 0.884L8.384 0L7.5 0.884L0 8.384L1.768 10.152L8.384 3.536L14 9.152L14.884 10.036L15.768 9.152L20.268 4.652L22.384 6.768L22.884 6.268V0.268H16.884L16.384 0.768L18.5 2.884L14.884 6.5L9.268 0.884ZM3.634 13.768V22.768H0.134V13.768H3.634ZM6.467 9.768V22.768H9.967V9.768H6.467ZM12.801 22.768V15.768H16.301V22.768H12.801ZM19.134 11.768V22.768H22.634V11.768H19.134Z" fill="#EFA930"/>
</svg>
