<svg width="20" height="20" viewBox="0 0 20 20" fill="none" xmlns="http://www.w3.org/2000/svg">
<path d="M3 0C2.20435 0 1.44129 0.316071 0.87868 0.87868C0.316071 1.44129 0 2.20435 0 3V13.8C0 14.5956 0.316071 15.3587 0.87868 15.9213C1.44129 16.4839 2.20435 16.8 3 16.8H7.92C7.44636 15.8709 7.19962 14.8428 7.2 13.8C7.19942 13.1914 7.28301 12.5857 7.4484 12H3C2.84087 12 2.68826 11.9368 2.57574 11.8243C2.46321 11.7117 2.4 11.5591 2.4 11.4C2.4 11.2409 2.46321 11.0883 2.57574 10.9757C2.68826 10.8632 2.84087 10.8 3 10.8H7.92C8.31386 10.0277 8.856 9.34061 9.51546 8.7779C10.1749 8.21519 10.9388 7.78791 11.7634 7.52046C12.588 7.25302 13.4572 7.15065 14.3214 7.2192C15.1856 7.28776 16.0279 7.52589 16.8 7.92V3C16.8 2.20435 16.4839 1.44129 15.9213 0.87868C15.3587 0.316071 14.5956 0 13.8 0H3ZM3 13.2H5.4C5.55913 13.2 5.71174 13.2632 5.82426 13.3757C5.93679 13.4883 6 13.6409 6 13.8C6 13.9591 5.93679 14.1117 5.82426 14.2243C5.71174 14.3368 5.55913 14.4 5.4 14.4H3C2.84087 14.4 2.68826 14.3368 2.57574 14.2243C2.46321 14.1117 2.4 13.9591 2.4 13.8C2.4 13.6409 2.46321 13.4883 2.57574 13.3757C2.68826 13.2632 2.84087 13.2 3 13.2ZM6 2.4C6.11609 2.39999 6.22969 2.43365 6.32703 2.49691C6.42437 2.56017 6.50127 2.65031 6.5484 2.7564L8.9484 8.1564C8.98039 8.22842 8.99788 8.30603 8.99988 8.38481C9.00187 8.46358 8.98833 8.54198 8.96003 8.61553C8.93173 8.68907 8.88921 8.75632 8.83492 8.81343C8.78063 8.87055 8.71562 8.91641 8.6436 8.9484C8.57158 8.98039 8.49397 8.99788 8.41519 8.99988C8.33642 9.00187 8.25802 8.98833 8.18447 8.96003C8.11093 8.93173 8.04368 8.88921 7.98657 8.83492C7.92945 8.78063 7.88359 8.71562 7.8516 8.6436L7.2096 7.2H4.7904L4.1484 8.6436C4.08379 8.78905 3.96406 8.90287 3.81553 8.96003C3.667 9.01719 3.50184 9.01301 3.3564 8.9484C3.21096 8.88379 3.09713 8.76406 3.03997 8.61553C2.98281 8.467 2.98699 8.30184 3.0516 8.1564L5.4516 2.7564C5.49873 2.65031 5.57563 2.56017 5.67297 2.49691C5.77031 2.43365 5.88391 2.39999 6 2.4ZM6.6768 6L6 4.4772L5.3232 6H6.6768ZM12.6 3V4.2H13.8C13.9591 4.2 14.1117 4.26321 14.2243 4.37574C14.3368 4.48826 14.4 4.64087 14.4 4.8C14.4 4.95913 14.3368 5.11174 14.2243 5.22426C14.1117 5.33679 13.9591 5.4 13.8 5.4H12.6V6.6C12.6 6.75913 12.5368 6.91174 12.4243 7.02426C12.3117 7.13679 12.1591 7.2 12 7.2C11.8409 7.2 11.6883 7.13679 11.5757 7.02426C11.4632 6.91174 11.4 6.75913 11.4 6.6V5.4H10.2C10.0409 5.4 9.88826 5.33679 9.77574 5.22426C9.66321 5.11174 9.6 4.95913 9.6 4.8C9.6 4.64087 9.66321 4.48826 9.77574 4.37574C9.88826 4.26321 10.0409 4.2 10.2 4.2H11.4V3C11.4 2.84087 11.4632 2.68826 11.5757 2.57574C11.6883 2.46321 11.8409 2.4 12 2.4C12.1591 2.4 12.3117 2.46321 12.4243 2.57574C12.5368 2.68826 12.6 2.84087 12.6 3ZM19.2 13.8C19.2 15.2322 18.6311 16.6057 17.6184 17.6184C16.6057 18.6311 15.2322 19.2 13.8 19.2C12.3678 19.2 10.9943 18.6311 9.98162 17.6184C8.96893 16.6057 8.4 15.2322 8.4 13.8C8.4 12.3678 8.96893 10.9943 9.98162 9.98162C10.9943 8.96893 12.3678 8.4 13.8 8.4C15.2322 8.4 16.6057 8.96893 17.6184 9.98162C18.6311 10.9943 19.2 12.3678 19.2 13.8ZM14.4 11.4C14.4 11.2409 14.3368 11.0883 14.2243 10.9757C14.1117 10.8632 13.9591 10.8 13.8 10.8C13.6409 10.8 13.4883 10.8632 13.3757 10.9757C13.2632 11.0883 13.2 11.2409 13.2 11.4V13.2H11.4C11.2409 13.2 11.0883 13.2632 10.9757 13.3757C10.8632 13.4883 10.8 13.6409 10.8 13.8C10.8 13.9591 10.8632 14.1117 10.9757 14.2243C11.0883 14.3368 11.2409 14.4 11.4 14.4H13.2V16.2C13.2 16.3591 13.2632 16.5117 13.3757 16.6243C13.4883 16.7368 13.6409 16.8 13.8 16.8C13.9591 16.8 14.1117 16.7368 14.2243 16.6243C14.3368 16.5117 14.4 16.3591 14.4 16.2V14.4H16.2C16.3591 14.4 16.5117 14.3368 16.6243 14.2243C16.7368 14.1117 16.8 13.9591 16.8 13.8C16.8 13.6409 16.7368 13.4883 16.6243 13.3757C16.5117 13.2632 16.3591 13.2 16.2 13.2H14.4V11.4Z" fill="white"/>
</svg>
