<svg width="23" height="23" viewBox="0 0 23 23" fill="none" xmlns="http://www.w3.org/2000/svg">
<path d="M15.659 0.00148837C17.386 -0.0360116 19.078 0.634988 20.4715 2.02799C21.865 3.42099 22.5355 5.11299 22.498 6.84049C22.461 8.55949 21.7245 10.252 20.4155 11.675C19.187 13.0049 17.9334 14.3115 16.6555 15.594L6.90549 5.84399C8.45949 4.30149 9.75549 3.06749 10.8245 2.08399C12.2475 0.774988 13.94 0.0389884 15.659 0.00148837ZM5.84499 6.90499C4.5667 8.18781 3.31281 9.49471 2.08399 10.825C0.774988 12.2475 0.0389884 13.94 0.00148837 15.659C-0.0360116 17.386 0.634988 19.078 2.02799 20.4715C3.42099 21.865 5.11299 22.5355 6.84049 22.498C8.55949 22.461 10.252 21.7245 11.675 20.4155C13.0053 19.1867 14.3122 17.9328 15.595 16.6545L5.84499 6.90499Z" fill="white"/>
</svg>
