<svg width="18" height="20" viewBox="0 0 18 20" fill="none" xmlns="http://www.w3.org/2000/svg">
<path fill-rule="evenodd" clip-rule="evenodd" d="M8.298 0.126819C8.69262 -0.0208285 9.12379 -0.040077 9.53 0.0718194L9.702 0.126819L16.702 2.75182C17.0569 2.88491 17.3667 3.11612 17.5953 3.41852C17.8239 3.72092 17.9618 4.08205 17.993 4.45982L18 4.62482V9.98782C18 11.6082 17.5624 13.1986 16.7336 14.591C15.9048 15.9834 14.7154 17.1262 13.291 17.8988L13.025 18.0378L9.671 19.7148C9.48632 19.807 9.28461 19.8601 9.07847 19.8708C8.87233 19.8815 8.66621 19.8495 8.473 19.7768L8.329 19.7148L4.975 18.0378C3.52561 17.3131 2.29878 16.2105 1.424 14.8464C0.549233 13.4824 0.0589805 11.9074 0.00500011 10.2878L0 9.98782V4.62482C5.81505e-06 4.24595 0.107627 3.87487 0.310334 3.55479C0.513041 3.23471 0.802495 2.97879 1.145 2.81682L1.298 2.75182L8.298 0.126819ZM12.433 6.56082L7.835 11.1588L6.067 9.39082C5.87936 9.20331 5.62492 9.09802 5.35965 9.09812C5.09438 9.09821 4.84001 9.20368 4.6525 9.39132C4.46499 9.57896 4.3597 9.8334 4.3598 10.0987C4.35989 10.3639 4.46536 10.6183 4.653 10.8058L7.057 13.2098C7.15915 13.312 7.28044 13.3931 7.41393 13.4484C7.54742 13.5037 7.6905 13.5322 7.835 13.5322C7.9795 13.5322 8.12258 13.5037 8.25607 13.4484C8.38956 13.3931 8.51085 13.312 8.613 13.2098L13.847 7.97482C13.9425 7.88257 14.0187 7.77223 14.0711 7.65022C14.1235 7.52822 14.1511 7.397 14.1523 7.26422C14.1534 7.13144 14.1281 6.99976 14.0778 6.87687C14.0275 6.75397 13.9533 6.64232 13.8594 6.54842C13.7655 6.45453 13.6539 6.38028 13.531 6.33C13.4081 6.27972 13.2764 6.25442 13.1436 6.25557C13.0108 6.25672 12.8796 6.28431 12.7576 6.33672C12.6356 6.38913 12.5252 6.46531 12.433 6.56082Z" fill="white"/>
</svg>
