<svg width="22" height="23" viewBox="0 0 22 23" fill="none" xmlns="http://www.w3.org/2000/svg">
<path d="M20.6737 0L15.8691 1.39734L17.8144 0.080625C16.5862 0.358125 15.0347 0.900937 13.0847 1.77703L9.90187 5.09531L11.0316 2.77734C9.93937 3.38484 8.78156 4.18125 7.66594 5.11406L6.92531 8.12812L6.76594 5.89688C5.66437 6.90938 4.62844 8.03438 3.77062 9.22031C2.86922 10.4625 2.16469 11.775 1.81172 13.0828L0.493594 12.2016C0.611719 13.3125 0.976875 14.2781 1.57594 15.1641L0 14.6813C0.358125 15.7828 0.943594 16.4953 1.93359 17.0719C1.37906 18.6328 1.11891 20.2641 0.839531 21.8906L1.70203 22.0359C2.70234 12.0656 9.76125 5.70938 16.1409 2.89313L16.4644 3.70781C10.7597 6.2625 6.32531 10.575 4.005 16.7906C4.85344 16.7953 5.68312 16.6922 6.45187 16.4953L6.68156 13.6406L7.29562 16.2422C7.80656 16.0547 8.27531 15.8297 8.6925 15.5672L7.72219 13.5281L9.25969 15.1594C9.63469 14.8594 9.94406 14.5219 10.1784 14.1516C11.6034 11.925 13.0941 9.7125 16.0284 7.86094L13.8862 7.10156L17.1722 7.2C17.7066 6.92813 18.2691 6.59531 18.6956 6.28125L16.3659 6.09375L19.8675 5.26875C20.1394 4.99687 20.3925 4.71094 20.6222 4.425C21.4331 3.39656 21.9816 2.32594 21.8503 1.35234C21.7894 0.865312 21.4987 0.407344 21.0253 0.150937C20.9081 0.09 20.7816 0.0360937 20.6737 0Z" fill="white"/>
</svg>
