<svg width="17" height="20" viewBox="0 0 17 20" fill="none" xmlns="http://www.w3.org/2000/svg">
<path fill-rule="evenodd" clip-rule="evenodd" d="M10.303 3.33301C10.303 1.49301 11.803 1.21465e-05 13.651 1.21465e-05C14.0898 -0.00117117 14.5245 0.0841155 14.9303 0.250999C15.3361 0.417882 15.7051 0.663091 16.0161 0.972615C16.3271 1.28214 16.5741 1.64991 16.7429 2.05492C16.9117 2.45992 16.9991 2.89423 17 3.33301C17 5.17401 15.5 6.66701 13.651 6.66701C13.2076 6.66734 12.7686 6.57964 12.3593 6.40901C11.9501 6.23838 11.5788 5.98822 11.267 5.67301L6.632 8.82901C6.76085 9.47202 6.69755 10.1387 6.45 10.746L11.532 14.086C12.1307 13.5981 12.8797 13.3321 13.652 13.333C14.0908 13.332 14.5255 13.4174 14.9312 13.5844C15.337 13.7514 15.7059 13.9967 16.0168 14.3063C16.3277 14.6159 16.5746 14.9838 16.7433 15.3888C16.912 15.7939 16.9992 16.2282 17 16.667C17 18.507 15.5 20 13.651 20C13.2123 20.0011 12.7777 19.9157 12.372 19.7487C11.9663 19.5818 11.5975 19.3366 11.2866 19.0271C10.9757 18.7175 10.7288 18.3498 10.56 17.9449C10.3913 17.5399 10.3039 17.1057 10.303 16.667C10.3022 16.1996 10.4007 15.7374 10.592 15.311L5.55 12C4.93922 12.5306 4.15706 12.8222 3.348 12.821C2.90922 12.8221 2.47453 12.7366 2.06877 12.5696C1.66301 12.4026 1.29413 12.1573 0.983212 11.8477C0.672295 11.5381 0.425431 11.1702 0.256728 10.7652C0.0880245 10.3601 0.000786975 9.9258 0 9.48701C0.000918172 9.04831 0.0882526 8.61409 0.257015 8.20915C0.425777 7.80421 0.67266 7.43648 0.983564 7.12697C1.29447 6.81746 1.6633 6.57223 2.069 6.40529C2.47469 6.23834 2.9093 6.15296 3.348 6.15401C4.412 6.15401 5.358 6.64701 5.971 7.41501L10.464 4.35601C10.3568 4.02561 10.3025 3.68036 10.303 3.33301Z" fill="white"/>
</svg>
