<svg width="20" height="20" viewBox="0 0 20 20" fill="none" xmlns="http://www.w3.org/2000/svg">
<path d="M17.15 9.75C17.71 9.75 17.99 9.75 18.204 9.641C18.3922 9.54513 18.5451 9.39215 18.641 9.204C18.75 8.99 18.75 8.71 18.75 8.15V5.95C18.75 5.39 18.75 5.11 18.641 4.896C18.5451 4.70785 18.3922 4.55487 18.204 4.459C17.99 4.35 17.71 4.35 17.15 4.35H15.6C15.3613 4.35 15.1324 4.25518 14.9636 4.0864C14.7948 3.91761 14.7 3.68869 14.7 3.45C14.7 2.73392 14.4155 2.04716 13.9092 1.54081C13.4028 1.03446 12.7161 0.75 12 0.75C11.2839 0.75 10.5972 1.03446 10.0908 1.54081C9.58446 2.04716 9.3 2.73392 9.3 3.45C9.3 3.68869 9.20518 3.91761 9.0364 4.0864C8.86761 4.25518 8.63869 4.35 8.4 4.35H6.85C6.29 4.35 6.01 4.35 5.796 4.459C5.60785 4.55487 5.45487 4.70785 5.359 4.896C5.25 5.11 5.25 5.39 5.25 5.95V8.15C5.25 8.71 5.25 8.99 5.141 9.204C5.04513 9.39215 4.89215 9.54513 4.704 9.641C4.49 9.75 4.21 9.75 3.65 9.75H3.45C3.09543 9.75 2.74433 9.81984 2.41675 9.95553C2.08918 10.0912 1.79153 10.2901 1.54081 10.5408C1.29009 10.7915 1.09121 11.0892 0.955525 11.4168C0.819837 11.7443 0.75 12.0954 0.75 12.45C0.75 12.8046 0.819837 13.1557 0.955525 13.4832C1.09121 13.8108 1.29009 14.1085 1.54081 14.3592C1.79153 14.6099 2.08918 14.8088 2.41675 14.9445C2.74433 15.0802 3.09543 15.15 3.45 15.15H3.65C4.21 15.15 4.49 15.15 4.704 15.259C4.89215 15.3549 5.04513 15.5078 5.141 15.696C5.25 15.91 5.25 16.19 5.25 16.75V17.15C5.25 17.71 5.25 17.99 5.359 18.204C5.45487 18.3922 5.60785 18.5451 5.796 18.641C6.01 18.75 6.29 18.75 6.85 18.75H17.15C17.71 18.75 17.99 18.75 18.204 18.641C18.3922 18.5451 18.5451 18.3922 18.641 18.204C18.75 17.99 18.75 17.71 18.75 17.15V16.75C18.75 16.19 18.75 15.91 18.641 15.696C18.5451 15.5078 18.3922 15.3549 18.204 15.259C17.99 15.15 17.71 15.15 17.15 15.15H16.95C16.2339 15.15 15.5472 14.8655 15.0408 14.3592C14.5345 13.8528 14.25 13.1661 14.25 12.45C14.25 11.7339 14.5345 11.0472 15.0408 10.5408C15.5472 10.0345 16.2339 9.75 16.95 9.75H17.15Z" stroke="white" stroke-width="1.5" stroke-linecap="round" stroke-linejoin="round"/>
</svg>
