<svg width="20" height="20" viewBox="0 0 20 20" fill="none" xmlns="http://www.w3.org/2000/svg">
<path d="M8.55 3.45C8.55 2.99694 8.63924 2.54832 8.81262 2.12974C8.98599 1.71117 9.24012 1.33084 9.56048 1.01048C9.88084 0.69012 10.2612 0.435994 10.6797 0.262615C11.0983 0.0892367 11.5469 0 12 0C12.4531 0 12.9017 0.0892367 13.3203 0.262615C13.7388 0.435994 14.1192 0.69012 14.4395 1.01048C14.7599 1.33084 15.014 1.71117 15.1874 2.12974C15.3608 2.54832 15.45 2.99694 15.45 3.45C15.45 3.533 15.517 3.6 15.6 3.6H17.176C17.434 3.6 17.67 3.6 17.868 3.616C18.081 3.634 18.314 3.673 18.545 3.791C18.874 3.959 19.141 4.226 19.309 4.556C19.427 4.786 19.466 5.019 19.484 5.232C19.5 5.43 19.5 5.666 19.5 5.924V8.176C19.5 8.434 19.5 8.67 19.484 8.868C19.4704 9.1026 19.4109 9.33225 19.309 9.544C19.1412 9.8734 18.8734 10.1412 18.544 10.309C18.314 10.427 18.081 10.467 17.868 10.484C17.67 10.5 17.434 10.5 17.176 10.5H16.95C16.6939 10.5 16.4404 10.5504 16.2038 10.6484C15.9672 10.7464 15.7522 10.8901 15.5711 11.0711C15.3901 11.2522 15.2464 11.4672 15.1484 11.7038C15.0504 11.9404 15 12.1939 15 12.45C15 12.7061 15.0504 12.9596 15.1484 13.1962C15.2464 13.4328 15.3901 13.6478 15.5711 13.8289C15.7522 14.0099 15.9672 14.1536 16.2038 14.2516C16.4404 14.3496 16.6939 14.4 16.95 14.4H17.176C17.434 14.4 17.67 14.4 17.868 14.416C18.081 14.433 18.314 14.473 18.545 14.591C18.874 14.759 19.141 15.026 19.309 15.355C19.427 15.585 19.466 15.819 19.484 16.032C19.5 16.23 19.5 16.466 19.5 16.724V17.176C19.5 17.434 19.5 17.67 19.484 17.868C19.4705 18.1029 19.411 18.3329 19.309 18.545C19.141 18.874 18.8732 19.1415 18.544 19.309C18.3323 19.4109 18.1026 19.4704 17.868 19.484C17.67 19.5 17.434 19.5 17.176 19.5H6.824C6.566 19.5 6.33 19.5 6.132 19.484C5.8974 19.4704 5.66775 19.4109 5.456 19.309C5.1266 19.1412 4.8588 18.8734 4.691 18.544C4.5891 18.3323 4.52965 18.1026 4.516 17.868C4.5 17.67 4.5 17.434 4.5 17.176V16.75C4.5 16.458 4.5 16.283 4.489 16.154C4.48707 16.1135 4.48104 16.0733 4.471 16.034C4.44771 15.9893 4.41146 15.9527 4.367 15.929C4.32739 15.9189 4.28684 15.9129 4.246 15.911C4.04754 15.8999 3.84873 15.8963 3.65 15.9H3.45C2.535 15.9 1.65748 15.5365 1.01048 14.8895C0.363481 14.2425 0 13.365 0 12.45C0 11.535 0.363481 10.6575 1.01048 10.0105C1.65748 9.36348 2.535 9 3.45 9H3.65C3.942 9 4.117 9 4.246 8.989C4.28651 8.98707 4.32671 8.98104 4.366 8.971C4.41068 8.94771 4.44728 8.91146 4.471 8.867C4.48111 8.82738 4.48714 8.78684 4.489 8.746C4.499 8.616 4.5 8.442 4.5 8.15V5.924C4.5 5.666 4.5 5.43 4.516 5.232C4.52965 4.9974 4.5891 4.76775 4.691 4.556C4.8588 4.2266 5.1266 3.9588 5.456 3.791C5.66775 3.6891 5.8974 3.62965 6.132 3.616C6.33 3.6 6.566 3.6 6.824 3.6H8.4C8.43978 3.6 8.47794 3.5842 8.50607 3.55607C8.5342 3.52794 8.55 3.48978 8.55 3.45Z" fill="#EFA930"/>
</svg>
