<svg width="18" height="20" viewBox="0 0 18 20" fill="none" xmlns="http://www.w3.org/2000/svg">
<path fill-rule="evenodd" clip-rule="evenodd" d="M17.5 14.464C17.4988 14.5119 17.4941 14.5597 17.486 14.607C17.5071 14.7156 17.5039 14.8274 17.4767 14.9346C17.4495 15.0418 17.3989 15.1417 17.3285 15.227C17.2582 15.3123 17.1698 15.3811 17.0698 15.4283C16.9698 15.4755 16.8606 15.5 16.75 15.5H2.75C2.58585 15.5 2.4233 15.5323 2.27165 15.5951C2.11999 15.658 1.98219 15.75 1.86612 15.8661C1.75004 15.9822 1.65797 16.12 1.59515 16.2716C1.53233 16.4233 1.5 16.5858 1.5 16.75C1.5 16.9142 1.53233 17.0767 1.59515 17.2284C1.65797 17.38 1.75004 17.5178 1.86612 17.6339C1.98219 17.75 2.11999 17.842 2.27165 17.9049C2.4233 17.9677 2.58585 18 2.75 18H16.75C16.9489 18 17.1397 18.079 17.2803 18.2197C17.421 18.3603 17.5 18.5511 17.5 18.75C17.5 18.9489 17.421 19.1397 17.2803 19.2803C17.1397 19.421 16.9489 19.5 16.75 19.5H2.75C2.02065 19.5 1.32118 19.2103 0.805456 18.6945C0.289731 18.1788 0 17.4793 0 16.75V2.75C0 2.02065 0.289731 1.32118 0.805456 0.805456C1.32118 0.289731 2.02065 0 2.75 0H16.15C16.896 0 17.5 0.604 17.5 1.35V14.464ZM5.75 4C5.55109 4 5.36032 4.07902 5.21967 4.21967C5.07902 4.36032 5 4.55109 5 4.75C5 4.94891 5.07902 5.13968 5.21967 5.28033C5.36032 5.42098 5.55109 5.5 5.75 5.5H11.75C11.9489 5.5 12.1397 5.42098 12.2803 5.28033C12.421 5.13968 12.5 4.94891 12.5 4.75C12.5 4.55109 12.421 4.36032 12.2803 4.21967C12.1397 4.07902 11.9489 4 11.75 4H5.75Z" fill="#EFA930"/>
</svg>
