<svg width="19" height="14" viewBox="0 0 19 14" fill="none" xmlns="http://www.w3.org/2000/svg">
<path d="M12.5 6.875C11.6968 6.875 10.9203 6.51641 10.3125 5.86563C9.72144 5.23086 9.3605 4.38438 9.29683 3.48281C9.22886 2.52109 9.52222 1.63672 10.1226 0.992188C10.723 0.347656 11.5625 0 12.5 0C13.4308 0 14.2726 0.353906 14.871 0.996875C15.4753 1.64609 15.7695 2.52891 15.7015 3.48242C15.6363 4.38516 15.2757 5.23125 14.6859 5.86523C14.0796 6.51641 13.3035 6.875 12.5 6.875ZM17.6496 13.75H7.35074C7.18515 13.7509 7.02158 13.7138 6.87259 13.6415C6.72361 13.5693 6.59318 13.4638 6.49136 13.3332C6.38335 13.1916 6.30877 13.0275 6.27319 12.853C6.2376 12.6786 6.24195 12.4983 6.28589 12.3258C6.6148 11.0051 7.42964 9.90977 8.64214 9.15859C9.71832 8.49219 11.0882 8.125 12.5 8.125C13.9394 8.125 15.2734 8.47656 16.3558 9.14258C17.571 9.88984 18.3871 10.9914 18.7144 12.3281C18.7578 12.5008 18.7617 12.681 18.7257 12.8554C18.6897 13.0298 18.6148 13.1938 18.5066 13.3352C18.4049 13.4651 18.2748 13.5701 18.1262 13.642C17.9776 13.7139 17.8146 13.7508 17.6496 13.75ZM5.11714 7.03125C3.74253 7.03125 2.53394 5.75313 2.42183 4.18242C2.36636 3.37773 2.61714 2.63359 3.12496 2.08789C3.6273 1.54766 4.33589 1.25 5.11714 1.25C5.89839 1.25 6.60152 1.54922 7.1066 2.09258C7.61831 2.64258 7.86831 3.38516 7.80972 4.1832C7.69761 5.75352 6.48941 7.03125 5.11714 7.03125ZM7.68199 8.25977C6.99488 7.92383 6.10308 7.75586 5.11753 7.75586C3.96675 7.75586 2.84917 8.05586 1.97027 8.60039C0.973784 9.21875 0.303471 10.1191 0.0327681 11.2063C-0.00684712 11.3626 -0.010594 11.5259 0.0218077 11.6839C0.0542094 11.8419 0.121921 11.9906 0.219877 12.1187C0.312826 12.2381 0.431903 12.3345 0.56795 12.4006C0.703998 12.4667 0.853392 12.5007 1.00464 12.5H5.34058C5.41376 12.5 5.48462 12.4743 5.5408 12.4274C5.59698 12.3805 5.63492 12.3154 5.648 12.2434C5.6523 12.2188 5.65777 12.1941 5.66402 12.1699C5.99527 10.8395 6.77144 9.71523 7.91831 8.8957C7.9605 8.8653 7.99443 8.82485 8.01702 8.77801C8.03962 8.73118 8.05018 8.67945 8.04774 8.62751C8.04529 8.57557 8.02993 8.52506 8.00303 8.48056C7.97613 8.43606 7.93856 8.39897 7.89371 8.37266C7.83238 8.33672 7.76206 8.29883 7.68199 8.25977Z" fill="white"/>
</svg>
