<svg width="18" height="20" viewBox="0 0 18 20" fill="none" xmlns="http://www.w3.org/2000/svg">
<path d="M0.75 16.75V2.75C0.75 2.21957 0.960714 1.71086 1.33579 1.33579C1.71086 0.960714 2.21957 0.75 2.75 0.75H16.15C16.3091 0.75 16.4617 0.813214 16.5743 0.925736C16.6868 1.03826 16.75 1.19087 16.75 1.35V14.464M2.75 14.75H16.75M2.75 18.75H16.75" stroke="white" stroke-width="1.5" stroke-linecap="round"/>
<path d="M2.75 18.75C2.21957 18.75 1.71086 18.5393 1.33579 18.1642C0.960714 17.7891 0.75 17.2804 0.75 16.75C0.75 16.2196 0.960714 15.7109 1.33579 15.3358C1.71086 14.9607 2.21957 14.75 2.75 14.75" stroke="white" stroke-width="1.5" stroke-linecap="round" stroke-linejoin="round"/>
<path d="M5.75 4.75H11.75" stroke="white" stroke-width="1.5" stroke-linecap="round"/>
</svg>
