<svg width="18" height="18" viewBox="0 0 18 18" fill="none" xmlns="http://www.w3.org/2000/svg">
<path fill-rule="evenodd" clip-rule="evenodd" d="M9.9815 8.01001H8.3615V7.53651H8.8915C9.2485 7.53651 9.591 7.40251 9.844 7.16351C9.96806 7.0481 10.0674 6.90867 10.1359 6.7537C10.2044 6.59872 10.2406 6.43144 10.2425 6.26201V5.42501C10.2425 5.46001 10.4615 5.43951 10.566 5.43001C10.6211 5.42929 10.6755 5.41688 10.7255 5.39361C10.7755 5.37034 10.82 5.33674 10.856 5.29501C10.916 5.22501 10.946 5.13651 10.941 5.04651C10.9185 4.91062 10.8717 4.77988 10.803 4.66051L10.619 4.21651C10.4864 3.91011 10.3584 3.60174 10.235 3.29151C10.235 3.29151 10.158 2.56351 10.089 2.31651C9.86877 1.64188 9.43536 1.05703 8.854 0.650012C8.25749 0.230805 7.54707 0.00400075 6.818 1.24037e-05C6.11254 -0.00185204 5.42252 0.206511 4.836 0.598512C4.26379 0.980028 3.82736 1.53323 3.5895 2.17851C3.35775 2.81306 3.34141 3.50625 3.543 4.15101C3.7507 4.805 4.16096 5.37601 4.7145 5.78151V8.00951H3.3015C2.4415 8.00751 1.614 8.32451 0.9965 8.89351C0.38 9.46251 0.0225 10.2375 0 11.0535V18H13.498V11.5265C13.5131 11.075 13.4339 10.6252 13.2655 10.206C13.094 9.78125 12.8383 9.39552 12.514 9.07201C12.1831 8.74224 11.7911 8.48003 11.36 8.30001C10.9229 8.11713 10.4552 8.01873 9.9815 8.01001ZM7.4285 12.998C7.23604 12.9906 7.04516 12.96 6.86 12.907C6.73422 12.8711 6.61332 12.8199 6.5 12.7545C6.38669 12.8199 6.26578 12.8711 6.14 12.907C5.93861 12.9649 5.73051 12.9962 5.521 13H5.519C5.552 13.935 5.5655 15.147 5.0285 15.683C4.3235 16.386 2.9135 16.7375 2.2085 16.1515C1.5035 15.5655 2.6785 9.82451 4.3235 9.82451C5.465 9.82451 5.5065 11.1955 5.5005 11.9995H5.522C5.63622 11.9941 5.74953 11.9765 5.86 11.947C5.9315 11.926 5.9765 11.904 6 11.8885V9.50001H7V11.8885C7.0235 11.9035 7.0685 11.926 7.14 11.947C7.24014 11.9744 7.34286 11.9913 7.4465 11.9975C7.441 11.1925 7.4835 9.82451 8.624 9.82451C10.269 9.82451 11.444 15.566 10.739 16.1515C10.034 16.7375 8.624 16.386 7.919 15.683C7.3815 15.147 7.395 13.933 7.4285 12.998ZM5.5 12.1205V12.083L5.5005 12.435C5.4983 12.3302 5.4978 12.2253 5.5 12.1205ZM9.5 6.00001C9.5 6.13262 9.44732 6.2598 9.35355 6.35357C9.25979 6.44733 9.13261 6.50001 9 6.50001C8.86739 6.50001 8.74022 6.44733 8.64645 6.35357C8.55268 6.2598 8.5 6.13262 8.5 6.00001C8.5 5.8674 8.55268 5.74023 8.64645 5.64646C8.74022 5.55269 8.86739 5.50001 9 5.50001C9.13261 5.50001 9.25979 5.55269 9.35355 5.64646C9.44732 5.74023 9.5 5.8674 9.5 6.00001ZM7.5 6.00001C7.63261 6.00001 7.75979 5.94733 7.85355 5.85357C7.94732 5.7598 8 5.63262 8 5.50001C8 5.3674 7.94732 5.24023 7.85355 5.14646C7.75979 5.05269 7.63261 5.00001 7.5 5.00001C7.36739 5.00001 7.24022 5.05269 7.14645 5.14646C7.05268 5.24023 7 5.3674 7 5.50001C7 5.63262 7.05268 5.7598 7.14645 5.85357C7.24022 5.94733 7.36739 6.00001 7.5 6.00001Z" fill="white"/>
<path d="M13.0002 4C13.0002 4.13261 12.9476 4.25979 12.8538 4.35355C12.76 4.44732 12.6329 4.5 12.5002 4.5C12.3676 4.5 12.2405 4.44732 12.1467 4.35355C12.0529 4.25979 12.0002 4.13261 12.0002 4C12.0002 3.86739 12.0529 3.74021 12.1467 3.64645C12.2405 3.55268 12.3676 3.5 12.5002 3.5C12.6329 3.5 12.76 3.55268 12.8538 3.64645C12.9476 3.74021 13.0002 3.86739 13.0002 4ZM14.0002 5.5C14.0002 5.63261 13.9476 5.75979 13.8538 5.85355C13.76 5.94732 13.6329 6 13.5002 6C13.3676 6 13.2405 5.94732 13.1467 5.85355C13.0529 5.75979 13.0002 5.63261 13.0002 5.5C13.0002 5.36739 13.0529 5.24021 13.1467 5.14645C13.2405 5.05268 13.3676 5 13.5002 5C13.6329 5 13.76 5.05268 13.8538 5.14645C13.9476 5.24021 14.0002 5.36739 14.0002 5.5ZM15.0002 7C15.0002 7.13261 14.9476 7.25979 14.8538 7.35355C14.76 7.44732 14.6329 7.5 14.5002 7.5C14.3676 7.5 14.2405 7.44732 14.1467 7.35355C14.0529 7.25979 14.0002 7.13261 14.0002 7C14.0002 6.86739 14.0529 6.74021 14.1467 6.64645C14.2405 6.55268 14.3676 6.5 14.5002 6.5C14.6329 6.5 14.76 6.55268 14.8538 6.64645C14.9476 6.74021 15.0002 6.86739 15.0002 7ZM18.0002 6.5C18.0002 6.63261 17.9476 6.75979 17.8538 6.85355C17.76 6.94732 17.6329 7 17.5002 7C17.3676 7 17.2405 6.94732 17.1467 6.85355C17.0529 6.75979 17.0002 6.63261 17.0002 6.5C17.0002 6.36739 17.0529 6.24021 17.1467 6.14645C17.2405 6.05268 17.3676 6 17.5002 6C17.6329 6 17.76 6.05268 17.8538 6.14645C17.9476 6.24021 18.0002 6.36739 18.0002 6.5ZM18.0002 4C18.0002 4.13261 17.9476 4.25979 17.8538 4.35355C17.76 4.44732 17.6329 4.5 17.5002 4.5C17.3676 4.5 17.2405 4.44732 17.1467 4.35355C17.0529 4.25979 17.0002 4.13261 17.0002 4C17.0002 3.86739 17.0529 3.74021 17.1467 3.64645C17.2405 3.55268 17.3676 3.5 17.5002 3.5C17.6329 3.5 17.76 3.55268 17.8538 3.64645C17.9476 3.74021 18.0002 3.86739 18.0002 4ZM18.0002 2C18.0002 2.13261 17.9476 2.25979 17.8538 2.35355C17.76 2.44732 17.6329 2.5 17.5002 2.5C17.3676 2.5 17.2405 2.44732 17.1467 2.35355C17.0529 2.25979 17.0002 2.13261 17.0002 2C17.0002 1.86739 17.0529 1.74021 17.1467 1.64645C17.2405 1.55268 17.3676 1.5 17.5002 1.5C17.6329 1.5 17.76 1.55268 17.8538 1.64645C17.9476 1.74021 18.0002 1.86739 18.0002 2ZM16.0002 3C16.0002 3.13261 15.9476 3.25979 15.8538 3.35355C15.76 3.44732 15.6329 3.5 15.5002 3.5C15.3676 3.5 15.2405 3.44732 15.1467 3.35355C15.0529 3.25979 15.0002 3.13261 15.0002 3C15.0002 2.86739 15.0529 2.74021 15.1467 2.64645C15.2405 2.55268 15.3676 2.5 15.5002 2.5C15.6329 2.5 15.76 2.55268 15.8538 2.64645C15.9476 2.74021 16.0002 2.86739 16.0002 3ZM16.0002 5C16.0002 5.13261 15.9476 5.25979 15.8538 5.35355C15.76 5.44732 15.6329 5.5 15.5002 5.5C15.3676 5.5 15.2405 5.44732 15.1467 5.35355C15.0529 5.25979 15.0002 5.13261 15.0002 5C15.0002 4.86739 15.0529 4.74021 15.1467 4.64645C15.2405 4.55268 15.3676 4.5 15.5002 4.5C15.6329 4.5 15.76 4.55268 15.8538 4.64645C15.9476 4.74021 16.0002 4.86739 16.0002 5ZM12.0002 6.5C12.0002 6.63261 11.9476 6.75979 11.8538 6.85355C11.76 6.94732 11.6329 7 11.5002 7C11.3676 7 11.2405 6.94732 11.1467 6.85355C11.0529 6.75979 11.0002 6.63261 11.0002 6.5C11.0002 6.36739 11.0529 6.24021 11.1467 6.14645C11.2405 6.05268 11.3676 6 11.5002 6C11.6329 6 11.76 6.05268 11.8538 6.14645C11.9476 6.24021 12.0002 6.36739 12.0002 6.5Z" fill="white"/>
</svg>
